<svg width="31" height="31" viewBox="0 0 31 31" fill="none" xmlns="http://www.w3.org/2000/svg">
<path d="M15.5 15.4993C15.8342 15.4993 16.1054 15.228 16.1054 14.8938C16.1054 14.5596 15.8342 14.2883 15.5 14.2883C15.1658 14.2883 14.8945 14.5596 14.8945 14.8938C14.8945 15.228 15.1658 15.4993 15.5 15.4993Z" fill="#133350"/>
<path d="M28.5781 10.6555H24.9975L19.4897 3.07793C18.9949 2.23003 17.905 1.92824 17.0394 2.40765C16.162 2.8951 15.8465 4.00032 16.3341 4.87801C16.3481 4.90285 16.3635 4.92673 16.3807 4.94944L20.7008 10.6555H10.2991L14.6192 4.94944C14.6362 4.92673 14.6518 4.90285 14.6658 4.87801C15.1523 4.00245 14.8403 2.89628 13.9598 2.40718C13.0961 1.92872 12.0062 2.23027 11.5105 3.07745L6.00241 10.6555H2.42187C1.08653 10.6555 0 11.742 0 13.0774C0 14.1306 0.683516 15.0475 1.64635 15.372C1.749 15.4515 1.87719 15.4993 2.01673 15.4993C2.04464 15.4993 2.07089 15.5009 2.09832 15.5047C2.35896 15.5397 2.56543 15.7374 2.61273 15.9962L4.67251 27.3284C4.82979 28.1923 5.58142 28.8196 6.45982 28.8196H24.5401C25.4185 28.8196 26.1702 28.1923 26.3274 27.3281L28.3872 15.9964C28.4345 15.7374 28.6412 15.5397 28.9028 15.5047C28.9293 15.5009 28.9555 15.4993 28.9832 15.4993C29.1237 15.4993 29.2528 15.451 29.3555 15.3706C30.319 15.044 30.9999 14.1287 30.9999 13.0774C30.9999 11.742 29.9134 10.6555 28.5781 10.6555ZM17.3762 4.25812C17.2379 3.9717 17.3452 3.62285 17.6267 3.46675C17.9197 3.30427 18.2891 3.40904 18.4507 3.70019C18.4625 3.72195 18.476 3.74276 18.4904 3.76263L23.5004 10.6555H22.2195L17.3762 4.25812ZM12.5095 3.76286C12.524 3.74299 12.537 3.72242 12.549 3.70113C12.711 3.40975 13.0807 3.30474 13.3726 3.46628C13.6545 3.62285 13.7623 3.97123 13.6237 4.25812L8.78046 10.6555H7.49952L12.5095 3.76286ZM28.5781 14.2883H17.9218C17.5874 14.2883 17.3164 14.5594 17.3164 14.8938C17.3164 15.2282 17.5874 15.4931 17.9218 15.4931H27.2702C27.2385 15.5835 27.2134 15.6771 27.1959 15.7736L25.1359 27.1115C25.0836 27.3996 24.8329 27.6086 24.5401 27.6086H6.45982C6.16678 27.6086 5.91632 27.3996 5.86381 27.1117L3.80404 15.7795C3.78654 15.683 3.76147 15.5894 3.72977 15.4993H13.0781C13.4125 15.4993 13.6836 15.2282 13.6836 14.8938C13.6836 14.5594 13.4125 14.2883 13.0781 14.2883H2.42187C1.74852 14.2883 1.21094 13.7396 1.21094 13.0774C1.21094 12.4097 1.7542 11.8664 2.42187 11.8664H28.5781C29.2457 11.8664 29.789 12.4097 29.789 13.0774C29.789 13.7498 29.2389 14.2883 28.5781 14.2883Z" fill="#501313"/>
<path d="M15.5 17.3157C14.4983 17.3157 13.6836 18.1305 13.6836 19.1321V23.9758C13.6836 24.9775 14.4983 25.7922 15.5 25.7922C16.5016 25.7922 17.3164 24.9775 17.3164 23.9758V19.1321C17.3164 18.1286 16.5035 17.3157 15.5 17.3157ZM16.1054 23.9758C16.1054 24.3098 15.8339 24.5813 15.5 24.5813C15.166 24.5813 14.8945 24.3098 14.8945 23.9758V19.1321C14.8945 18.7981 15.166 18.5266 15.5 18.5266C15.8342 18.5266 16.1054 18.7979 16.1054 19.1321V23.9758Z" fill="#133350"/>
<path d="M21.5547 25.7922C22.5563 25.7922 23.3711 24.9775 23.3711 23.9758V19.1321C23.3711 18.1286 22.5582 17.3157 21.5547 17.3157C20.553 17.3157 19.7383 18.1305 19.7383 19.1321V23.9758C19.7383 24.9775 20.553 25.7922 21.5547 25.7922ZM20.9492 19.1321C20.9492 18.7981 21.2207 18.5266 21.5547 18.5266C21.8888 18.5266 22.1601 18.7979 22.1601 19.1321V23.9758C22.1601 24.3098 21.8886 24.5813 21.5547 24.5813C21.2207 24.5813 20.9492 24.3098 20.9492 23.9758V19.1321Z" fill="#133350"/>
<path d="M9.44531 17.3157C8.44369 17.3157 7.62891 18.1305 7.62891 19.1321V23.9758C7.62891 24.9775 8.44369 25.7922 9.44531 25.7922C10.4469 25.7922 11.2617 24.9775 11.2617 23.9758V19.1321C11.2617 18.1286 10.4488 17.3157 9.44531 17.3157ZM10.0508 23.9758C10.0508 24.3098 9.77926 24.5813 9.44531 24.5813C9.11136 24.5813 8.83984 24.3098 8.83984 23.9758V19.1321C8.83984 18.7981 9.11136 18.5266 9.44531 18.5266C9.7795 18.5266 10.0508 18.7977 10.0508 19.1321V23.9758Z" fill="#133350"/>
</svg>
