<svg width="36" height="36" viewBox="0 0 36 36" fill="none" xmlns="http://www.w3.org/2000/svg">
<path d="M17.9994 36C8.07418 36 0 27.9247 0 17.9994C0 8.07418 8.07418 0 17.9994 0C27.9247 0 35.9988 8.07418 35.9988 17.9994C36 27.9247 27.9247 36 17.9994 36ZM17.9994 2.05622C9.20777 2.05622 2.05622 9.20893 2.05622 17.9994C2.05622 26.7899 9.20777 33.9415 17.9994 33.9415C26.7899 33.9415 33.9415 26.7899 33.9415 17.9994C33.9415 9.20893 26.7899 2.05622 17.9994 2.05622Z" fill="#FFB800"/>
<path d="M25.0965 19.0276H10.9023C10.3344 19.0276 9.87305 18.5686 9.87305 17.9995C9.87305 17.4315 10.3332 16.9702 10.9023 16.9702H25.0965C25.6644 16.9702 26.1246 17.4315 26.1246 17.9995C26.1246 18.5686 25.6656 19.0276 25.0965 19.0276Z" fill="#FFB800"/>
<path d="M17.9995 26.1246C17.4315 26.1246 16.9702 25.6644 16.9702 25.0965V10.9023C16.9702 10.3344 17.4315 9.87308 17.9995 9.87308C18.5674 9.87308 19.0276 10.3344 19.0276 10.9023V25.0965C19.0276 25.6656 18.5686 26.1246 17.9995 26.1246Z" fill="#FFB800"/>
</svg>
