<svg width="48" height="47" viewBox="0 0 48 47" fill="none" xmlns="http://www.w3.org/2000/svg">
<g clip-path="url(#clip0)">
<path d="M12.3909 34.8259C5.98977 28.4248 5.99052 18.0095 12.3916 11.6084C18.7927 5.20729 29.2073 5.20729 35.6084 11.6084C42.0095 18.0095 42.0095 28.4241 35.6084 34.8251C29.208 41.227 18.792 41.227 12.3909 34.8259ZM34.2823 12.9345C28.6123 7.26449 19.387 7.26524 13.7177 12.9345C8.04847 18.6038 8.04847 27.8283 13.7185 33.4983C19.3877 39.1675 28.6123 39.1675 34.2815 33.4983C39.9508 27.829 39.9515 18.6038 34.2823 12.9345Z" fill="#133350"/>
<path d="M27.914 28.4569L18.7598 19.3027C18.3935 18.9364 18.392 18.3429 18.759 17.9758C19.1253 17.6095 19.7196 17.6088 20.0867 17.9758L29.2409 27.1301C29.6072 27.4964 29.6064 28.0906 29.2402 28.4569C28.8731 28.824 28.2811 28.824 27.914 28.4569Z" fill="#133350"/>
<path d="M18.7598 28.4569C18.3936 28.0906 18.3928 27.4963 18.7591 27.13L27.9133 17.9758C28.2796 17.6095 28.8747 17.6095 29.241 17.9758C29.6072 18.3421 29.6065 18.9364 29.2402 19.3027L20.086 28.4569C19.7189 28.8239 19.1269 28.8239 18.7598 28.4569Z" fill="#133350"/>
</g>
<defs>
<clipPath id="clip0">
<rect width="32.8345" height="32.8345" fill="white" transform="translate(24) rotate(45)"/>
</clipPath>
</defs>
</svg>
