<svg width="94" height="94" viewBox="0 0 94 94" fill="none" xmlns="http://www.w3.org/2000/svg">
<path d="M90.9582 14.1294H3.04178C1.36447 14.1294 0 15.4939 0 17.1712V76.8289C0 78.5062 1.36447 79.8706 3.04178 79.8706H90.9582C92.6355 79.8706 94 78.5062 94 76.8289V17.1712C94 15.4939 92.6355 14.1294 90.9582 14.1294ZM91.0564 64.3674H86.2483C85.4355 64.3674 84.7764 65.0264 84.7764 65.8393C84.7764 66.6523 85.4354 67.3112 86.2483 67.3112H91.0564V70.6473H67.4094C66.5966 70.6473 65.9375 71.3062 65.9375 72.1191C65.9375 72.9319 66.5964 73.591 67.4094 73.591H91.0564V76.829C91.0564 76.8832 91.0126 76.9271 90.9584 76.9271H3.04178C2.98762 76.9271 2.94374 76.8832 2.94374 76.829V73.591H61.1294C61.9421 73.591 62.6012 72.9321 62.6012 72.1191C62.6012 71.3064 61.9423 70.6473 61.1294 70.6473H2.94356V67.311H79.969C80.7818 67.311 81.4409 66.6521 81.4409 65.8391C81.4409 65.0262 80.782 64.3672 79.969 64.3672H2.94356V61.0262C2.97642 61.0271 3.00855 61.0312 3.0416 61.0312H90.958C90.9913 61.0312 91.0234 61.0273 91.0561 61.0262V64.3674H91.0564ZM91.0564 57.9896C91.0564 58.0437 91.0126 58.0876 90.9584 58.0876H3.04178C2.98762 58.0876 2.94374 58.0437 2.94374 57.9896V17.1712C2.94374 17.117 2.98762 17.0731 3.04178 17.0731H90.9582C91.0124 17.0731 91.0563 17.117 91.0563 17.1712V57.9896H91.0564Z" fill="#133350"/>
<path d="M86.2485 26.6888C83.5974 26.6888 81.4405 24.5319 81.4405 21.8808C81.4405 21.068 80.7816 20.4089 79.9687 20.4089H62.6987C61.886 20.4089 61.2269 21.0679 61.2269 21.8808C61.2269 22.6938 61.8856 23.3527 62.6987 23.3527H78.6371C79.2345 26.4492 81.6801 28.8948 84.7766 29.4922V45.6681C81.6801 46.2655 79.2343 48.7112 78.6371 51.8077H62.6987C61.886 51.8077 61.2269 52.4666 61.2269 53.2796C61.2269 54.0925 61.8858 54.7514 62.6987 54.7514H79.9687C80.7814 54.7514 81.4405 54.0925 81.4405 53.2796C81.4405 50.6285 83.5974 48.4716 86.2485 48.4716C87.0613 48.4716 87.7204 47.8127 87.7204 46.9997V28.1606C87.7202 27.3479 87.0613 26.6888 86.2485 26.6888Z" fill="#133350"/>
<path d="M31.3003 51.8079H15.3629C14.7655 48.7118 12.3195 46.266 9.22337 45.6684V29.4925C12.3195 28.8947 14.7657 26.4492 15.3629 23.3529H31.3003C32.1131 23.3529 32.7722 22.694 32.7722 21.8811C32.7722 21.0681 32.1133 20.4092 31.3003 20.4092H14.0313C13.2186 20.4092 12.5595 21.0681 12.5595 21.8811C12.5595 24.5321 10.4026 26.689 7.7515 26.689C6.93873 26.689 6.27963 27.3479 6.27963 28.1609V47C6.27963 47.8127 6.93855 48.4718 7.7515 48.4718C10.4026 48.4718 12.5595 50.6287 12.5595 53.2798C12.5595 54.0926 13.2184 54.7517 14.0313 54.7517H31.3005C32.1133 54.7517 32.7724 54.0928 32.7724 53.2798C32.7724 52.4668 32.1133 51.8079 31.3003 51.8079Z" fill="#133350"/>
<path d="M47 20.4092C37.5317 20.4092 29.8289 28.1122 29.8289 37.5803C29.8289 47.0485 37.5317 54.7515 47 54.7515C56.4683 54.7515 64.1712 47.0486 64.1712 37.5803C64.1712 28.112 56.4683 20.4092 47 20.4092ZM47 51.8079C39.1549 51.8079 32.7724 45.4255 32.7724 37.5803C32.7724 29.7352 39.1549 23.3527 47 23.3527C54.8452 23.3527 61.2276 29.7352 61.2276 37.5803C61.2276 45.4255 54.8452 51.8079 47 51.8079Z" fill="#133350"/>
<path d="M48.4719 36.4494V31.3135C50.5705 31.6363 51.8079 32.5957 51.8079 33.1649C51.8079 33.9776 52.4669 34.6367 53.2798 34.6367C54.0928 34.6367 54.7517 33.9778 54.7517 33.1649C54.7517 30.6884 52.138 28.7524 48.4719 28.3411V28.1608C48.4719 27.3481 47.8129 26.689 47 26.689C46.187 26.689 45.5281 27.3479 45.5281 28.1608V28.3411C41.8619 28.7524 39.2483 30.6886 39.2483 33.1649C39.2483 36.6175 42.6975 37.9253 45.5281 38.7112V43.8471C43.4295 43.5243 42.192 42.5649 42.192 41.9957C42.192 41.183 41.5331 40.5239 40.7202 40.5239C39.9072 40.5239 39.2483 41.1828 39.2483 41.9957C39.2483 44.4722 41.8619 46.4082 45.5281 46.8195V46.9999C45.5281 47.8127 46.187 48.4718 47 48.4718C47.8129 48.4718 48.4719 47.8129 48.4719 46.9999V46.8196C52.138 46.4084 54.7517 44.4722 54.7517 41.9959C54.7515 38.5431 51.3023 37.2353 48.4719 36.4494ZM45.5281 35.6335C43.0731 34.8616 42.192 34.1726 42.192 33.1649C42.192 32.5957 43.4295 31.6363 45.5281 31.3135V35.6335ZM48.4719 43.8471V39.5271C50.9269 40.299 51.8079 40.988 51.8079 41.9957C51.8079 42.5649 50.5703 43.5243 48.4719 43.8471Z" fill="#133350"/>
</svg>
