<svg width="24" height="24" viewBox="0 0 24 24" fill="none" xmlns="http://www.w3.org/2000/svg">
<path d="M15.5766 6.38525H8.42348C7.28174 6.38525 6.35284 7.31415 6.35284 8.45589V15.609C6.35284 16.7507 7.28174 17.6799 8.42348 17.6799H15.5766C16.7183 17.6799 17.6475 16.751 17.6475 15.609V8.45589C17.6475 7.31415 16.7186 6.38525 15.5766 6.38525ZM12 15.7507C9.94998 15.7507 8.28203 14.0828 8.28203 12.0324C8.28203 9.98239 9.94998 8.31444 12 8.31444C14.0503 8.31444 15.7183 9.98239 15.7183 12.0324C15.7183 14.0825 14.0501 15.7507 12 15.7507ZM15.8378 9.08318C15.3525 9.08318 14.9578 8.68851 14.9578 8.20348C14.9578 7.71844 15.3525 7.32378 15.8378 7.32378C16.3229 7.32378 16.7175 7.71844 16.7175 8.20348C16.7175 8.68851 16.3229 9.08318 15.8378 9.08318Z" fill="#6A453B"/>
<path d="M12 9.8855C10.8166 9.8855 9.85291 10.8486 9.85291 12.0321C9.85291 13.2161 10.8166 14.1794 12 14.1794C13.184 14.1794 14.1469 13.2161 14.1469 12.0321C14.1469 10.8489 13.1837 9.8855 12 9.8855Z" fill="#6A453B"/>
<path d="M12 0C5.37285 0 0 5.37285 0 12C0 18.6272 5.37285 24 12 24C18.6272 24 24 18.6272 24 12C24 5.37285 18.6272 0 12 0ZM19.2183 15.6089C19.2183 17.6172 17.5849 19.2507 15.5766 19.2507H8.42345C6.41538 19.2507 4.78166 17.6172 4.78166 15.6089V8.4558C4.78166 6.44774 6.41538 4.81401 8.42345 4.81401H15.5766C17.5849 4.81401 19.2183 6.44774 19.2183 8.4558V15.6089Z" fill="#6A453B"/>
</svg>
