<svg width="86" height="86" viewBox="0 0 86 86" fill="none" xmlns="http://www.w3.org/2000/svg">
<g filter="url(#filter0_d)">
<path d="M75.708 45.1769C74.4088 44.3279 73.1812 43.5923 71.9944 42.8808C70.8256 42.1798 69.6171 41.4552 68.3482 40.6269L68.2037 32.9132C68.1992 32.6569 68.0426 32.4273 67.8054 32.3296L56.0437 27.4699C56.364 27.3647 56.6611 27.271 56.9516 27.1794C57.5256 26.9981 58.1188 26.8113 58.8822 26.5379C59.1249 26.4512 59.2921 26.2282 59.3082 25.9709L60.061 13.7359C60.0781 13.4579 59.9144 13.2001 59.6551 13.0974L46.058 7.69942C45.0338 7.29256 43.8732 6.83232 42.6193 6.91138C41.4793 6.98338 40.4642 7.49246 39.5684 7.94212L14.9372 20.299C14.7006 20.4173 14.5606 20.6686 14.5842 20.9325L15.7872 34.3901C15.8083 34.6282 15.9594 34.8347 16.18 34.9268L27.9734 39.8761C29.0565 40.3308 30.2841 40.846 31.6024 40.8877C31.6643 40.8898 31.7258 40.8908 31.7872 40.8908C33.8401 40.8908 35.6186 39.8041 37.3765 38.4969L37.8664 40.4618C37.8463 40.4703 37.8256 40.4764 37.806 40.4869L26.3318 46.5596C26.2251 46.616 26.1425 46.6996 26.0841 46.7963L16.0415 40.8777C15.8587 40.7699 15.6679 40.6501 15.4654 40.5242C14.5097 39.927 13.4266 39.2497 12.2498 39.1853C11.414 39.1389 10.9014 39.4985 10.6189 39.8071C10.1138 40.3595 9.90333 41.2246 10.0418 42.1813C10.276 43.8007 11.4759 44.9936 12.6189 45.9463C15.046 47.9695 17.8658 49.5209 20.8674 50.5169L14.7358 54.8272C14.5691 54.9446 14.4674 55.1339 14.4624 55.3383C14.4568 55.5423 14.549 55.7366 14.7096 55.8625C19.3095 59.4543 24.2522 62.6689 29.0318 65.7777C31.2313 67.2078 33.5058 68.6867 35.7168 70.1837C36.2647 70.5543 36.9465 71.0156 37.7592 71.1344C37.9027 71.1555 38.0442 71.1651 38.1847 71.1651C39.2834 71.1651 40.2809 70.5719 40.9677 70.1641C45.6512 67.381 50.3452 64.3955 54.9188 61.2902C56.0498 60.5223 57.2024 59.7499 58.3167 59.0026C61.6365 56.7775 65.0692 54.4768 68.3538 52.0145C68.5345 51.879 68.7153 51.7436 68.8956 51.6076C71.2088 49.8623 73.5196 48.0486 75.7634 46.2157C75.9225 46.0858 76.0101 45.8874 75.999 45.6825C75.9879 45.477 75.8802 45.2892 75.708 45.1769ZM67.0874 42.1365C67.0979 42.6924 67.1085 43.2675 66.9026 43.7212C66.6432 44.2937 66.0309 44.7026 65.3164 45.1396L53.8835 52.1378C53.4329 52.4133 53.0089 52.659 52.5995 52.8015L52.4681 40.0247L66.9333 33.9041L67.0874 42.1365ZM65.9055 32.9394L51.8845 38.8721C51.7999 38.9078 51.7274 38.9597 51.6685 39.0226L38.4354 33.4122C38.6132 33.2989 38.8141 33.1931 39.021 33.0879L51.2681 26.8918L65.9055 32.9394ZM40.1691 23.0614C41.1102 22.5231 42.138 22.0961 43.1148 21.6354C45.5409 20.4908 47.9861 19.3821 50.4469 18.3075L49.9806 26.1164C49.6044 26.2911 49.2333 26.4764 48.8627 26.6637C46.4765 27.8712 44.0902 29.0787 41.7034 30.2862C41.1127 30.5853 40.5145 30.8688 39.9229 31.1629L40.1691 23.0614ZM58.0478 25.4648C57.4909 25.6577 57.0211 25.8057 56.5644 25.9497C55.9903 26.1305 55.3972 26.3178 54.6343 26.5912C54.526 26.6295 54.4369 26.696 54.3669 26.777C53.6141 26.4664 52.8618 26.1552 52.1091 25.8445C51.881 25.7498 51.5773 25.5736 51.3064 25.5454L51.7722 17.7335C54.0698 16.745 56.3796 15.7853 58.7004 14.8608L58.0478 25.4648ZM40.1465 9.09422C40.9707 8.68082 41.8227 8.25331 42.7009 8.19742C43.6662 8.13699 44.6844 8.54083 45.5822 8.89734L57.9068 13.7902C57.3348 14.0188 56.7633 14.2495 56.1923 14.4821C54.8473 15.0305 53.5059 15.5934 52.166 16.1649C51.4383 15.4157 50.4106 15.1035 49.5768 14.8512C45.4281 13.5969 41.291 12.1482 37.2581 10.5434C38.2204 10.0605 39.1822 9.57762 40.1465 9.09422ZM27.2971 15.5405C29.3692 14.5007 31.4413 13.4614 33.5133 12.4221C34.2495 12.0525 34.9837 11.6839 35.7183 11.3153C40.1188 13.1049 44.6552 14.7102 49.2031 16.0854C49.7777 16.2591 50.3663 16.4379 50.8326 16.7349C46.9614 18.4092 43.1224 20.1771 39.3428 22.0196C39.3347 22.0166 39.3277 22.012 39.3196 22.009C34.39 20.2708 29.345 18.6665 24.3081 17.2304C24.4149 17.1635 24.5206 17.0945 24.6228 17.0225C25.4587 16.4328 26.3751 16.0033 27.2971 15.5405ZM19.7944 19.3045C20.7058 18.8473 21.726 18.4827 22.6998 18.0572C22.7663 18.1121 22.8443 18.1544 22.9324 18.1791C27.8853 19.5684 32.8522 21.1278 37.7189 22.8167C37.0789 23.1339 36.4389 23.4512 35.8029 23.7724C35.1901 24.0821 34.5783 24.3938 33.968 24.708C33.6906 24.851 32.5108 25.6854 32.2439 25.6033L16.7505 20.8312C17.7651 20.3222 18.7797 19.8136 19.7944 19.3045ZM31.5143 30.0163C31.5032 31.039 31.4926 32.0617 31.482 33.0844C31.4679 34.384 31.4141 35.6872 31.3944 36.9893C31.3864 37.4934 31.3854 37.9964 31.3919 38.4995C30.2458 36.082 28.9135 33.7541 27.4099 31.542C28.7614 30.2243 30.1658 28.9332 31.5938 27.6915C31.6532 28.4453 31.5218 29.2912 31.5143 30.0163ZM16.974 32.9222C16.9328 32.0768 16.9066 31.248 16.7243 30.397C16.5808 29.7253 16.5974 28.975 16.536 28.2902C16.4025 26.7937 16.4322 25.2921 16.2943 23.8102L20.5386 29.7686L16.974 32.9222ZM21.5099 28.9095L16.679 22.1279C16.83 22.1883 16.962 22.2452 17.0158 22.2618C17.6483 22.4567 18.2807 22.6515 18.9132 22.8464C20.6635 23.3852 22.4133 23.924 24.1636 24.4633C25.8399 24.9794 27.5167 25.496 29.1935 26.0127C29.5938 26.136 30.3622 26.2967 30.909 26.5781C29.4608 27.833 28.0358 29.1386 26.6622 30.4725C26.1445 29.7504 25.6093 29.0405 25.0554 28.3456C24.8776 28.123 24.58 27.7499 24.1092 27.6084C23.2658 27.3556 22.5548 27.9845 22.2511 28.2534L21.5099 28.9095ZM17.5733 34.1136L23.1051 29.2192C23.5362 28.8375 23.6913 28.8295 23.7386 28.8431C23.8237 28.8687 23.9753 29.0586 24.0478 29.1497C26.5655 32.3064 28.7005 35.7612 30.4004 39.4235C29.7337 39.2452 29.0761 38.9411 28.4724 38.6878C28.4714 38.6873 19.8316 35.0618 17.5733 34.1136ZM36.6418 33.5406C36.3306 34.304 36.529 35.0985 36.6735 35.6791L37.0376 37.1384C35.6086 38.227 34.1926 39.2039 32.7031 39.5055L32.8376 26.7473C32.8391 26.5927 34.3623 25.9548 34.5541 25.8561C35.1614 25.5434 35.7707 25.2332 36.3805 24.925C37.1781 24.5217 38.0507 24.2175 38.8564 23.8203L38.6127 31.8487C37.8407 32.2692 36.9943 32.678 36.6418 33.5406ZM37.7713 34.5306L51.181 40.216L51.3104 52.8201V52.8216C50.9383 52.6927 50.5697 52.4707 50.2329 52.2657C49.3114 51.7053 48.3773 51.1267 47.474 50.5673C45.6471 49.4353 43.7578 48.2651 41.8615 47.176C40.9582 46.6573 40.7155 46.5178 40.4733 45.5878C40.1983 44.5339 39.9335 43.4553 39.6777 42.4125C39.5467 41.8797 39.4158 41.3475 39.2829 40.8157L37.9243 35.3669C37.8488 35.0633 37.7859 34.7818 37.7713 34.5306ZM13.4442 44.9558C12.489 44.1597 11.489 43.1854 11.3173 41.997C11.2367 41.4411 11.3339 40.9356 11.5701 40.6778C11.6531 40.5871 11.7971 40.4708 12.1063 40.4708C12.13 40.4708 12.1542 40.4713 12.1793 40.4728C13.0248 40.5192 13.9588 41.1028 14.7826 41.6174C14.9921 41.7483 15.1895 41.8722 15.3869 41.988L46.9004 60.5601C43.1345 61.3249 39.2089 61.3058 35.453 60.4946C32.5279 59.8632 30.5394 58.8092 29.3737 57.2739C28.0388 55.5161 27.7684 53.1233 27.5303 51.0119C27.4955 50.7048 27.2473 50.4661 26.9396 50.4419C22.024 50.0612 17.2314 48.113 13.4442 44.9558ZM68.1191 50.5784C67.9398 50.7133 67.7606 50.8488 67.5808 50.9832C64.3234 53.4249 60.9049 55.7165 57.5986 57.9321C56.4828 58.6803 55.3287 59.4538 54.1947 60.2237C49.6422 63.3149 44.9709 66.2863 40.3086 69.0558C39.4913 69.5417 38.6958 69.9687 37.946 69.8589C37.4243 69.7829 36.9233 69.444 36.4394 69.1162C34.2183 67.6126 31.9388 66.1302 29.7348 64.6971C25.2165 61.7585 20.5522 58.7252 16.1915 55.3791L22.2944 51.0895C22.3413 51.0567 22.3795 51.018 22.4148 50.9762C23.6923 51.312 24.9954 51.5497 26.3087 51.6801C26.5494 53.7426 26.9205 56.1742 28.347 58.0534C29.7066 59.8445 31.9418 61.055 35.1805 61.7544C37.1987 62.19 39.2632 62.4075 41.3283 62.4075C43.8394 62.4075 46.3511 62.0858 48.7781 61.4448C49.0299 61.3783 49.2167 61.1678 49.252 60.91C49.2877 60.6522 49.1649 60.3984 48.9408 60.2665L27.2936 47.5088L38.1852 41.7448C38.2652 42.0701 38.3458 42.3948 38.4259 42.7201C38.6832 43.767 38.949 44.8501 39.226 45.9131C39.588 47.3013 40.1585 47.684 41.2195 48.2938C43.0972 49.3724 44.9774 50.5371 46.7957 51.6635C47.7011 52.2244 48.6376 52.8045 49.5632 53.3675C50.1342 53.7144 50.8447 54.1465 51.6745 54.2129C51.751 54.219 51.8271 54.222 51.9021 54.222C52.9474 54.222 53.8704 53.6575 54.5563 53.2371L65.9896 46.2394C66.683 45.8149 67.6332 45.2333 68.0768 44.2534C68.3915 43.5595 68.3885 42.8007 68.3774 42.1783C69.3986 42.8269 70.3785 43.415 71.3317 43.9865C72.2778 44.5535 73.2497 45.1366 74.2593 45.7771C72.2456 47.4086 70.1836 49.0214 68.1191 50.5784Z" fill="#FFB800"/>
</g>
<defs>
<filter id="filter0_d" x="0" y="0" width="86" height="86" filterUnits="userSpaceOnUse" color-interpolation-filters="sRGB">
<feFlood flood-opacity="0" result="BackgroundImageFix"/>
<feColorMatrix in="SourceAlpha" type="matrix" values="0 0 0 0 0 0 0 0 0 0 0 0 0 0 0 0 0 0 127 0"/>
<feOffset dy="4"/>
<feGaussianBlur stdDeviation="5"/>
<feColorMatrix type="matrix" values="0 0 0 0 1 0 0 0 0 0.72 0 0 0 0 0 0 0 0 1 0"/>
<feBlend mode="normal" in2="BackgroundImageFix" result="effect1_dropShadow"/>
<feBlend mode="normal" in="SourceGraphic" in2="effect1_dropShadow" result="shape"/>
</filter>
</defs>
</svg>
