<svg width="75" height="85" viewBox="0 0 75 85" fill="none" xmlns="http://www.w3.org/2000/svg">
<g clip-path="url(#clip0)" filter="url(#filter0_d)">
<path d="M63.6796 7.26804C63.0741 6.45921 61.999 5.98512 60.8038 6.00049C59.7837 6.01289 58.8038 6.35457 58.0163 6.62832C51.6414 8.84851 45.3111 11.4243 39.1945 14.2862C38.3589 13.4084 37.321 12.7469 36.3158 12.426C34.1571 11.7377 30.9857 12.4944 28.7382 13.4317C26.3633 14.4225 24.5691 16.1607 23.8148 18.2014C23.2108 19.8359 23.3571 21.82 24.1962 23.3474C24.5171 23.9321 24.948 24.3973 25.4499 24.7667C25.4538 24.8005 25.4583 24.8342 25.4677 24.8674C25.553 25.1694 25.5872 25.5146 25.5699 25.893C25.5099 27.1754 24.9108 28.3621 24.276 29.6182C23.9869 30.191 23.6874 30.7841 23.4399 31.3926C23.2163 31.9416 23.0501 32.4861 22.9381 33.0202C22.8716 33.0227 22.8076 33.0271 22.7516 33.0291C21.6066 33.0802 20.4223 33.3817 19.2887 33.5587C18.5522 33.6738 17.8158 33.7888 17.0794 33.9034C15.553 34.1419 13.854 34.5154 13.0085 35.9411C12.5666 36.6865 12.4634 37.589 12.7104 38.5501C12.9127 39.3396 13.3501 40.1439 13.9413 40.8154C14.4501 41.3931 15.0585 41.9109 15.7494 42.3631C13.7652 43.9481 12.2978 46.1643 11.491 48.8115C10.6623 51.5286 10.6231 54.4991 11.3814 57.176C12.8284 62.2849 16.9569 66.7158 22.4258 69.0288C25.5198 70.338 29.0452 71 32.825 71C34.7219 71 36.6832 70.8329 38.6847 70.4971C43.3423 69.7156 46.9416 68.2388 49.6885 65.9809C53.3875 62.9419 55.5958 58.2695 55.5968 53.4824C55.5982 48.8412 53.5243 44.3071 50.0287 41.2632C50.7671 40.8461 51.4688 40.3175 51.9841 39.5979C52.8202 38.4316 53.0865 36.5407 51.9335 35.3341C51.1846 34.5506 50.1249 34.3373 49.1038 34.1861C45.2094 33.6098 41.2813 33.2607 37.3458 33.1382C35.5942 33.0842 33.8417 33.0747 32.0896 33.1104C31.2044 33.1288 30.3192 33.1585 29.4345 33.1997C28.954 33.222 28.4675 33.1526 27.9904 33.2443C27.9483 33.2528 27.9031 33.2652 27.8565 33.2805C27.8163 33.0871 27.7856 32.8952 27.7712 32.7043C27.7281 32.1385 27.8377 31.5577 28.0703 31.0316C28.2721 31.4888 28.648 31.8731 29.131 32.1072C29.6973 32.3815 30.3341 32.4122 30.8781 32.192C31.431 31.9674 31.9121 31.4953 32.2324 30.8625C32.6257 30.0844 32.7685 29.1203 32.6445 28.074C32.5587 27.3445 32.3614 26.6532 32.1491 25.9827C33.9999 25.7695 35.8496 25.1982 37.3785 24.2183C39.2858 22.9968 40.5712 21.0633 40.8593 19.0816L59.0691 13.7233C60.3218 13.3548 61.8804 12.8966 63.0007 11.8145C64.4835 10.3824 64.5103 8.37789 63.6796 7.26804ZM30.9178 13.9787C32.6559 15.9053 33.9557 18.2311 34.6802 20.7231C35.0477 21.9867 35.1816 23.0162 35.1033 23.9579C34.2627 24.2946 33.3676 24.5312 32.468 24.6755C33.134 23.2309 33.2976 21.7323 32.9059 20.4573C32.7199 19.8518 32.4387 19.4159 32.0465 19.1258C31.5481 18.7558 30.8588 18.6432 30.2032 18.8233C29.6993 18.9616 29.2213 19.2602 28.7819 19.7109C28.6713 19.824 28.5706 19.9391 28.4734 20.0501C28.2979 20.2505 28.1322 20.4394 27.9522 20.5674C27.7553 20.7077 27.5302 20.7414 27.4434 20.6844C27.3388 20.616 27.2946 20.3621 27.3447 20.1176C27.4395 19.6584 27.738 19.2284 28.0544 18.7727C28.2473 18.495 28.4466 18.2078 28.6158 17.8929C28.9936 17.1897 29.0794 16.5178 28.8637 15.9495C28.7397 15.6231 28.5176 15.34 28.2175 15.1143C29.067 14.6239 29.9949 14.2495 30.9178 13.9787ZM25.0055 18.6413C25.4102 17.5473 26.1352 16.6477 27.0338 15.9217C27.3145 16.0134 27.5902 16.1721 27.677 16.4002C27.7851 16.6849 27.611 17.0806 27.4975 17.2914C27.3626 17.5428 27.192 17.7883 27.0115 18.0486C26.6366 18.5887 26.2483 19.1476 26.1015 19.8612C25.9398 20.6447 26.1942 21.3851 26.7496 21.7476C27.2996 22.1062 28.0603 22.0487 28.6887 21.6013C28.9887 21.3876 29.2223 21.1213 29.4276 20.8872C29.5183 20.7836 29.6036 20.6864 29.6909 20.5971C29.9706 20.31 30.2562 20.125 30.5389 20.0472C30.8176 19.9708 31.1057 20.0085 31.2907 20.1454C31.4548 20.2673 31.5897 20.4974 31.6919 20.8302C32.0519 22.0015 31.7816 23.4605 30.95 24.8332C30.7705 24.8421 30.5915 24.8491 30.4144 24.851C29.0115 24.8674 27.4543 24.6641 26.2949 23.8081C24.8622 22.7504 24.3078 20.5292 25.0055 18.6413ZM28.3623 36.8992C28.9495 36.8759 29.5719 37.1382 30.227 37.4149C30.4129 37.4933 30.5984 37.5717 30.7829 37.6436C32.6416 38.3681 34.7313 38.504 36.6679 38.0264C37.2342 37.8866 37.7841 37.6966 38.3168 37.5131C39.2312 37.1977 40.0956 36.9002 40.9848 36.859C41.5332 36.8342 42.1189 36.9086 42.7239 37.0807C43.3106 37.2478 44.0639 37.5637 44.5221 38.1429C44.0738 38.2659 43.6314 38.379 43.2 38.4866C34.0162 40.7757 26.8538 41.0098 20.6599 39.222C19.7945 38.9726 18.9946 38.6929 18.2557 38.3815C19.4498 37.5359 21.0581 37.0663 23.2406 36.919C23.5704 37.652 24.0489 38.2258 24.6311 38.5793C25.0621 38.8412 25.5441 38.9741 26.0132 38.9741C26.3797 38.9741 26.7382 38.8933 27.0581 38.7291C27.7167 38.3924 28.1922 37.7184 28.3623 36.8992ZM17.2753 35.1581C17.4811 35.1258 17.6874 35.0936 17.8932 35.0614C18.9147 34.9022 19.9358 34.7425 20.9574 34.5833C21.4598 34.5049 21.9616 34.4266 22.464 34.3482C22.5651 34.3324 22.6693 34.319 22.7724 34.3031C22.7531 34.7772 22.7829 35.2359 22.8602 35.6738C20.2815 35.889 18.3509 36.5788 16.9713 37.7765C16.0514 37.2915 15.2445 36.7435 14.5403 36.1281C15.2524 35.4918 16.3673 35.2994 17.2753 35.1581ZM48.8826 65C46.3118 67.113 42.9074 68.5016 38.475 69.245C32.7234 70.21 27.3442 69.731 22.9202 67.8599C17.8024 65.6952 13.9457 61.5722 12.6028 56.8303C11.9264 54.4415 11.7999 51.7016 12.6732 49.3411C18.9276 52.1906 25.9368 53.7924 32.9857 53.9769C33.4464 53.9888 33.9066 53.9947 34.3673 53.9947C41.1231 53.9947 47.867 52.7014 53.9627 50.2298C54.2028 51.2915 54.3277 52.3825 54.3277 53.4824C54.3262 57.8931 52.291 62.1991 48.8826 65ZM53.6295 48.9994C53.6166 49.0039 53.6027 49.0059 53.5898 49.0113C47.2124 51.6144 40.0996 52.8938 33.0189 52.7073C26.1154 52.5268 19.253 50.9543 13.1369 48.1564C13.4637 47.3411 13.8103 46.5506 14.3216 45.7914C14.6792 45.2598 15.0794 44.7569 15.5217 44.2932C15.6685 44.139 16.7675 42.9533 16.9519 43.0425C17.6412 43.3768 18.3906 43.6555 19.191 43.8727C21.0774 44.3845 23.0417 44.5253 25.0561 44.6349C27.1642 44.7495 29.3011 44.8313 31.4415 44.8313C37.3522 44.8313 43.2853 44.2064 48.6729 41.9178C48.7135 41.9005 48.7542 41.8826 48.7948 41.8652C48.8226 41.8995 48.8534 41.9317 48.8886 41.961C51.1261 43.8023 52.7641 46.2724 53.6295 48.9994ZM50.9526 38.858C50.3079 39.7581 49.2372 40.2987 48.1769 40.7494C41.4712 43.5975 34.1119 43.8558 25.125 43.3674C23.1072 43.2578 21.2926 43.1278 19.5232 42.6478C17.5664 42.1172 15.9656 41.1933 14.8939 39.9763C14.2924 39.2935 13.7151 38.2158 13.8966 37.2483C15.5371 38.624 17.6427 39.6728 20.3078 40.4415C23.1523 41.2627 26.1838 41.6743 29.4975 41.6743C33.6602 41.6743 38.2682 41.0242 43.5075 39.7184C46.0083 39.0951 48.8697 38.2843 51.2174 36.5595C51.6736 37.2111 51.379 38.263 50.9526 38.858ZM30.5944 34.4241C31.5783 34.3889 32.5632 34.3686 33.5476 34.3621C35.5178 34.3497 37.4886 34.3948 39.4564 34.498C42.6227 34.6631 45.7812 34.978 48.9183 35.4422C49.3394 35.5047 49.7564 35.5989 50.1437 35.7646C48.8147 36.6701 47.3017 37.291 45.7956 37.768C45.2962 36.8848 44.3545 36.2253 43.0715 35.8598C42.3346 35.65 41.6121 35.5592 40.9262 35.591C39.8541 35.6401 38.8623 35.9823 37.9027 36.313C37.3735 36.4955 36.8742 36.6676 36.3634 36.7941C34.6788 37.2096 32.8607 37.0916 31.2441 36.4613C31.07 36.3934 30.896 36.3195 30.7209 36.2456C30.0187 35.949 29.2371 35.6207 28.4005 35.6297C28.3564 35.2553 28.2741 34.8908 28.1818 34.5406C28.9674 34.6007 29.8283 34.4514 30.5944 34.4241ZM31.3839 28.2227C31.4499 28.7792 31.4538 29.589 31.0993 30.2892C30.9178 30.6487 30.6698 30.9066 30.401 31.0157C30.1927 31.1 29.925 31.0812 29.6844 30.9646C29.4444 30.8481 29.2634 30.6497 29.2004 30.434C29.126 30.1766 29.1503 29.8548 29.2808 29.3906C29.3552 29.1248 29.2495 28.8416 29.0194 28.6894C28.7893 28.5376 28.4868 28.5515 28.2721 28.7241C27.065 29.6946 26.3881 31.2562 26.5057 32.8005C26.5508 33.3946 26.704 33.9495 26.8523 34.4871C26.8825 34.5972 26.9133 34.7078 26.9426 34.8179C27.0898 35.3708 27.2158 35.9565 27.1449 36.4975C27.0784 37.0009 26.8235 37.4229 26.4799 37.5984C26.1441 37.7705 25.677 37.7294 25.2897 37.4938C24.8146 37.2052 24.5275 36.7068 24.3698 36.3388C23.6681 34.6998 24.2225 32.8362 24.6152 31.8712C24.8439 31.3103 25.1315 30.7405 25.4097 30.19C26.0762 28.8704 26.7655 27.5052 26.8379 25.952C26.8449 25.7997 26.8439 25.6514 26.8379 25.5056C27.7911 25.8637 28.8439 26.0209 29.8372 26.066C30.1694 26.0809 30.5067 26.0839 30.8459 26.075C31.0735 26.7801 31.2991 27.5052 31.3839 28.2227ZM36.6941 23.1496C36.5959 23.2121 36.4953 23.2726 36.3941 23.3316C36.3827 22.4384 36.222 21.4774 35.8997 20.3685C35.1856 17.9128 33.9513 15.6073 32.3098 13.645C33.1801 13.4828 34.0842 13.4193 34.957 13.5899C35.2927 14.1538 35.6002 14.7479 35.8972 15.3281C36.9049 17.2949 38.04 19.517 38.2166 21.8195C37.7718 22.3393 37.251 22.7925 36.6941 23.1496ZM39.2451 20.1741C38.8003 18.2153 37.8714 16.3973 37.0269 14.7489C36.8915 14.485 36.7532 14.2172 36.6118 13.9494C36.7408 13.998 36.8667 14.0531 36.9857 14.122C38.3505 14.914 39.5655 16.4092 39.6458 18.0338C39.682 18.7722 39.5307 19.4972 39.2451 20.1741ZM62.1185 10.9016C61.2229 11.7664 59.8884 12.1592 58.7106 12.5054L40.897 17.7471C40.8117 16.8763 40.4839 16.0476 40.0043 15.3092C45.9974 12.5163 52.1938 10 58.4339 7.82743C59.1708 7.57104 60.0064 7.27994 60.8197 7.27002C61.6117 7.2611 62.3 7.54377 62.663 8.02877C63.1554 8.68634 63.0543 9.99803 62.1185 10.9016Z" fill="#FFB800"/>
</g>
<defs>
<filter id="filter0_d" x="-5" y="0" width="85" height="85" filterUnits="userSpaceOnUse" color-interpolation-filters="sRGB">
<feFlood flood-opacity="0" result="BackgroundImageFix"/>
<feColorMatrix in="SourceAlpha" type="matrix" values="0 0 0 0 0 0 0 0 0 0 0 0 0 0 0 0 0 0 127 0"/>
<feOffset dy="4"/>
<feGaussianBlur stdDeviation="5"/>
<feColorMatrix type="matrix" values="0 0 0 0 1 0 0 0 0 0.72 0 0 0 0 0 0 0 0 1 0"/>
<feBlend mode="normal" in2="BackgroundImageFix" result="effect1_dropShadow"/>
<feBlend mode="normal" in="SourceGraphic" in2="effect1_dropShadow" result="shape"/>
</filter>
<clipPath id="clip0">
<rect width="65" height="65" fill="white" transform="translate(5 6)"/>
</clipPath>
</defs>
</svg>
