<svg width="36" height="36" viewBox="0 0 36 36" fill="none" xmlns="http://www.w3.org/2000/svg">
<path d="M18 0C8.05835 0 0 8.05835 0 18C0 27.9416 8.05835 36 18 36C27.9416 36 36 27.9405 36 18C36 8.05953 27.9416 0 18 0ZM18 33.75C9.30147 33.75 2.25 26.6985 2.25 18C2.25 9.30147 9.30147 2.25 18 2.25C26.6985 2.25 33.75 9.30147 33.75 18C33.75 26.6985 26.6985 33.75 18 33.75ZM24.75 16.875H11.25C10.629 16.875 10.125 17.379 10.125 18C10.125 18.621 10.629 19.125 11.25 19.125H24.75C25.371 19.125 25.875 18.621 25.875 18C25.875 17.379 25.371 16.875 24.75 16.875Z" fill="#FFB800"/>
</svg>
