<svg xmlns="http://www.w3.org/2000/svg" xmlns:xlink="http://www.w3.org/1999/xlink" width="0" height="0" style="position:absolute">
	
		<symbol id="icon-bread-crumbs-arrow" viewBox="0 0 9 16">
			<path d="M8.207 8.707a1 1 0 0 0 0-1.414L1.843.929A1 1 0 0 0 .43 2.343L6.086 8 .429 13.657a1 1 0 1 0 1.414 1.414l6.364-6.364zM7 9h.5V7H7v2z"></path>
		</symbol>
	
		<symbol id="icon-btn-cart" viewBox="0 0 31 31">
			<path d="M15.5 15.5a.606.606 0 1 0 0-1.212.606.606 0 0 0 0 1.211z"></path><path d="M28.578 10.655h-3.58L19.49 3.079a1.816 1.816 0 1 0-3.156 1.8c.014.025.03.049.047.071l4.32 5.707H10.299l4.32-5.707a.66.66 0 0 0 .047-.071 1.816 1.816 0 0 0-3.155-1.8l-5.509 7.578h-3.58A2.425 2.425 0 0 0 0 13.076c0 1.054.684 1.97 1.646 2.295.103.08.231.127.37.127a.604.604 0 0 1 .596.497l2.06 11.332A1.816 1.816 0 0 0 6.46 28.82h18.08c.879 0 1.63-.628 1.787-1.492l2.06-11.332a.604.604 0 0 1 .596-.497c.14 0 .27-.048.372-.128A2.428 2.428 0 0 0 31 13.077a2.425 2.425 0 0 0-2.422-2.421zM17.376 4.258a.605.605 0 0 1 1.075-.558.57.57 0 0 0 .04.063l5.01 6.893h-1.282l-4.843-6.398zm-4.867-.495a.624.624 0 0 0 .04-.062.605.605 0 1 1 1.075.557L8.78 10.655H7.5l5.01-6.892zm16.07 10.525H17.921a.605.605 0 0 0-.606.606.6.6 0 0 0 .606.6h9.348c-.032.09-.057.183-.074.28l-2.06 11.338a.605.605 0 0 1-.596.497H6.46a.605.605 0 0 1-.596-.497L3.804 15.78a1.826 1.826 0 0 0-.074-.28h9.348a.606.606 0 0 0 0-1.212H2.422a1.212 1.212 0 0 1 0-2.422h26.156c.668 0 1.211.544 1.211 1.211 0 .673-.55 1.211-1.21 1.211z"></path><path d="M15.5 17.316a1.818 1.818 0 0 0-1.816 1.816v4.844c0 1.002.814 1.816 1.816 1.816a1.818 1.818 0 0 0 1.816-1.816v-4.844a1.816 1.816 0 0 0-1.816-1.816zm.605 6.66a.606.606 0 0 1-1.21 0v-4.844a.606.606 0 0 1 1.21 0v4.844zM21.555 25.792a1.818 1.818 0 0 0 1.816-1.816v-4.844a1.816 1.816 0 1 0-3.633 0v4.844c0 1.002.815 1.816 1.817 1.816zm-.606-6.66a.606.606 0 0 1 1.211 0v4.844a.606.606 0 0 1-1.21 0v-4.844zM9.445 17.316a1.818 1.818 0 0 0-1.816 1.816v4.844c0 1.002.815 1.816 1.816 1.816a1.818 1.818 0 0 0 1.817-1.816v-4.844a1.816 1.816 0 0 0-1.817-1.816zm.606 6.66a.606.606 0 0 1-1.211 0v-4.844a.606.606 0 0 1 1.21 0v4.844z"></path>
		</symbol>
	
		<symbol id="icon-btn-next" viewBox="0 0 13 24">
			<path d="M12.56 13.06a1.5 1.5 0 0 0 0-2.12L3.016 1.392A1.5 1.5 0 1 0 .893 3.515L9.38 12 .893 20.485a1.5 1.5 0 1 0 2.122 2.122l9.546-9.546zM11 13.5h.5v-3H11v3z"></path>
		</symbol>
	
		<symbol id="icon-btn-prev" viewBox="0 0 13 24">
			<path d="M.44 10.94a1.5 1.5 0 0 0 0 2.12l9.545 9.547a1.5 1.5 0 1 0 2.122-2.122L3.62 12l8.486-8.485a1.5 1.5 0 1 0-2.122-2.122L.44 10.94zM2 10.5h-.5v3H2v-3z"></path>
		</symbol>
	
		<symbol id="icon-close-phone-btn" viewBox="0 0 348.333 348.334">
			<path d="M336.559 68.611L231.016 174.165l105.543 105.549c15.699 15.705 15.699 41.145 0 56.85-7.844 7.844-18.128 11.769-28.407 11.769-10.296 0-20.581-3.919-28.419-11.769L174.167 231.003 68.609 336.563c-7.843 7.844-18.128 11.769-28.416 11.769-10.285 0-20.563-3.919-28.413-11.769-15.699-15.698-15.699-41.139 0-56.85l105.54-105.549L11.774 68.611c-15.699-15.699-15.699-41.145 0-56.844 15.696-15.687 41.127-15.687 56.829 0l105.563 105.554L279.721 11.767c15.705-15.687 41.139-15.687 56.832 0 15.705 15.699 15.705 41.145.006 56.844z"></path>
		</symbol>
	
		<symbol id="icon-count-ctrl-add" viewBox="0 0 36 36">
			<path d="M18 36C8.073 36 0 27.925 0 18 0 8.073 8.074 0 18 0c9.925 0 17.999 8.074 17.999 18 .001 9.925-8.074 18-18 18zm0-33.944C9.207 2.056 2.055 9.21 2.055 18S9.208 33.941 18 33.941c8.79 0 15.942-7.151 15.942-15.942C33.941 9.21 26.79 2.056 18 2.056z"></path><path d="M25.096 19.028H10.902a1.028 1.028 0 1 1 0-2.058h14.194a1.029 1.029 0 0 1 0 2.058z"></path><path d="M18 26.125c-.569 0-1.03-.46-1.03-1.029V10.902a1.03 1.03 0 0 1 2.058 0v14.194c0 .57-.46 1.029-1.028 1.029z"></path>
		</symbol>
	
		<symbol id="icon-count-ctrl-del" viewBox="0 0 36 36">
			<path d="M18 0C8.058 0 0 8.058 0 18s8.058 18 18 18 18-8.06 18-18S27.942 0 18 0zm0 33.75C9.301 33.75 2.25 26.698 2.25 18 2.25 9.301 9.301 2.25 18 2.25c8.698 0 15.75 7.051 15.75 15.75 0 8.698-7.052 15.75-15.75 15.75zm6.75-16.875h-13.5a1.125 1.125 0 0 0 0 2.25h13.5a1.125 1.125 0 0 0 0-2.25z"></path>
		</symbol>
	
		<symbol id="icon-del-prod" viewBox="0 0 48 47">
			<g clip-path="url(#a)"><path d="M12.39 34.826c-6.4-6.401-6.4-16.817.002-23.218 6.4-6.4 16.815-6.4 23.216 0 6.402 6.401 6.402 16.816 0 23.217-6.4 6.402-16.816 6.402-23.217 0zm21.892-21.892c-5.67-5.67-14.895-5.669-20.564 0-5.67 5.67-5.67 14.894 0 20.564s14.894 5.67 20.564 0c5.669-5.669 5.67-14.894 0-20.563z"></path><path d="M27.914 28.457l-9.154-9.154a.938.938 0 1 1 1.327-1.327l9.154 9.154a.938.938 0 0 1-1.327 1.327z"></path><path d="M18.76 28.457a.939.939 0 0 1 0-1.327l9.153-9.154a.94.94 0 0 1 1.327 1.327l-9.154 9.154a.936.936 0 0 1-1.326 0z"></path></g><defs><clipPath id="a"><path transform="rotate(45 12 28.97)" d="M0 0h32.834v32.834H0z"></path></clipPath></defs>
		</symbol>
	
		<symbol id="icon-deliver-prod-icon-1" viewBox="0 0 67 67">
			<path d="M57.055 55.191a4.398 4.398 0 0 0-2.212-3.264l-11.59-6.519a4.573 4.573 0 0 0-5.457.75l-4.07 4.07c-.834.833-2.169.937-3.105.241a74.194 74.194 0 0 1-8.169-7.08 74.205 74.205 0 0 1-7.079-8.167c-.696-.937-.592-2.272.242-3.106l4.07-4.07a4.573 4.573 0 0 0 .75-5.457l-6.52-11.59a4.397 4.397 0 0 0-3.264-2.212c-1.458-.2-2.902.293-3.962 1.354l-4.293 4.293c-3.032 3.032-3.192 8.461-.449 15.287 2.624 6.53 7.617 13.673 14.06 20.115 6.441 6.443 13.585 11.435 20.114 14.059 3.234 1.3 6.153 1.947 8.653 1.947 2.778 0 5.039-.8 6.635-2.396l4.292-4.292c1.06-1.06 1.554-2.505 1.354-3.963zm-2.889 2.428l-.75.75-9.88-5.39a1.085 1.085 0 1 0-1.04 1.906l9.32 5.084-1.942 1.942c-2.345 2.345-7.062 2.333-12.943-.03-6.264-2.517-13.15-7.34-19.39-13.58S6.478 35.177 3.96 28.912c-2.363-5.88-2.374-10.598-.03-12.943l1.942-1.942 1.04 1.905a1.085 1.085 0 1 0 1.905-1.04l-1.344-2.465.75-.75a2.536 2.536 0 0 1 1.795-.761c.112 0 .224.008.337.023.712.098 1.32.508 1.667 1.125l6.52 11.59c.522.93.36 2.105-.393 2.859l-1.937 1.937-5.082-9.318a1.085 1.085 0 1 0-1.906 1.04l5.388 9.877-.533.534c-1.59 1.589-1.782 4.14-.45 5.934a76.408 76.408 0 0 0 7.287 8.409 76.346 76.346 0 0 0 8.41 7.286c1.793 1.334 4.344 1.14 5.934-.449l.533-.533 2.465 1.344a1.085 1.085 0 0 0 1.04-1.905l-1.905-1.04 1.936-1.936a2.396 2.396 0 0 1 2.86-.392l11.59 6.519a2.244 2.244 0 0 1 1.124 1.667 2.517 2.517 0 0 1-.738 2.133zM52.023 28.941h-1.23v-9.333a1.085 1.085 0 1 0-2.17 0v9.333h-5.666l2.022-9.098a1.085 1.085 0 1 0-2.12-.47L40.545 29.79a1.085 1.085 0 0 0 1.06 1.321h7.018v3.545a1.085 1.085 0 1 0 2.17 0v-3.545h1.23a1.085 1.085 0 0 0 0-2.17z"></path><path d="M38.131 33.572h-7.988c.473-1.243 1.809-2.034 3.736-3.086 2.378-1.297 5.337-2.912 5.337-6.578 0-2.97-2.564-5.386-5.715-5.386-3.152 0-5.716 2.416-5.716 5.386a1.085 1.085 0 0 0 2.17 0c0-1.773 1.59-3.215 3.546-3.215 1.954 0 3.545 1.442 3.545 3.215 0 2.217-1.59 3.245-4.207 4.673-2.37 1.293-5.055 2.758-5.055 6.076 0 .6.486 1.086 1.086 1.086h9.26a1.085 1.085 0 0 0 .001-2.171z"></path><path d="M61.071 46.327l-2.113.423A26.463 26.463 0 0 0 67 27.71C67 13.07 55.088 1.158 40.446 1.158c-8.629 0-16.75 4.217-21.725 11.282a1.085 1.085 0 0 0 1.775 1.25 24.433 24.433 0 0 1 19.95-10.362c13.445 0 24.383 10.938 24.383 24.383a24.3 24.3 0 0 1-7.595 17.681l.484-2.419a1.085 1.085 0 0 0-2.129-.425l-1.157 5.788a1.085 1.085 0 0 0 1.277 1.277l5.788-1.157a1.086 1.086 0 1 0-.426-2.129z"></path><path d="M40.446 5.788c-.599 0-1.085.486-1.085 1.085V9.19a1.085 1.085 0 0 0 2.17 0V6.873c0-.599-.485-1.085-1.085-1.085zM61.284 26.626h-2.315a1.085 1.085 0 1 0 0 2.17h2.315a1.085 1.085 0 0 0 0-2.17zM24.948 17.51l-2.005-1.157a1.085 1.085 0 1 0-1.085 1.88l2.005 1.157a1.085 1.085 0 0 0 1.085-1.88zM59.035 37.19l-2.005-1.158a1.085 1.085 0 0 0-1.086 1.88l2.005 1.158a1.085 1.085 0 0 0 1.085-1.88zM51.408 8.725a1.085 1.085 0 0 0-1.483.398l-1.157 2.005a1.085 1.085 0 0 0 1.88 1.085l1.157-2.005c.3-.519.122-1.183-.397-1.483zM31.728 42.812a1.085 1.085 0 0 0-1.483.397l-1.157 2.005a1.085 1.085 0 0 0 1.88 1.086l1.157-2.005c.3-.52.122-1.183-.397-1.483zM59.432 16.75c-.3-.52-.964-.697-1.482-.397l-2.005 1.157a1.085 1.085 0 1 0 1.085 1.88l2.005-1.157c.519-.3.697-.964.397-1.483zM25.345 36.43c-.3-.52-.963-.697-1.482-.397l-2.005 1.157a1.085 1.085 0 1 0 1.085 1.88l2.005-1.157c.52-.3.697-.964.397-1.483zM32.125 11.128l-1.158-2.005a1.085 1.085 0 1 0-1.88 1.085l1.159 2.005a1.085 1.085 0 1 0 1.879-1.085zM51.805 45.214l-1.158-2.005a1.085 1.085 0 1 0-1.88 1.086l1.158 2.005a1.085 1.085 0 1 0 1.88-1.086z"></path>
		</symbol>
	
		<symbol id="icon-deliver-prod-icon-2" viewBox="0 0 101 100">
			<path d="M99.357 47.574c-1.05-1.239-2.482-2.044-4.124-2.345l-.771-10.365c.76-.007 1.41-.55 1.542-1.293l.297-1.67c.32-1.79-.126-3.558-1.22-4.848-1.093-1.29-2.693-2-4.505-2h-11.61l.565-3.173c.16-.901-.072-1.801-.637-2.468-.56-.66-1.402-1.04-2.31-1.04H19.435c-1.69 0-3.245 1.302-3.541 2.964l-5.056 28.392a1.567 1.567 0 0 0 1.559 1.838c.753 0 1.42-.535 1.555-1.294L19.01 21.88c.033-.187.276-.376.426-.376h56.951L71.36 49.728a1.567 1.567 0 0 0 1.282 1.814 1.58 1.58 0 0 0 1.832-1.27l.365-2.047h18.915c1.307 0 2.437.484 3.18 1.361.513.605.811 1.356.883 2.188h-5.253c-.768 0-1.424.546-1.557 1.294l-.595 3.34c-.24 1.346.099 2.68.928 3.659.819.965 2.06 1.52 3.408 1.52h1.489l-1.227 6.888h-4.175a8.187 8.187 0 0 0-1.788-3.72c-1.617-1.909-3.998-2.96-6.702-2.96-4.335 0-8.518 2.809-10.477 6.68h-.635l2.052-11.523a1.567 1.567 0 0 0-1.283-1.813 1.58 1.58 0 0 0-1.832 1.27l-2.149 12.067H38.746a8.188 8.188 0 0 0-1.787-3.72c-1.618-1.91-3.998-2.96-6.702-2.96-4.336 0-8.519 2.808-10.477 6.68h-9.07l.632-3.549h7.107c.874 0 1.582-.701 1.582-1.566 0-.864-.708-1.566-1.581-1.566H1.58c-.873 0-1.581.701-1.581 1.566 0 .865.708 1.566 1.581 1.566h6.55L7.566 68.1c-.16.901.072 1.8.637 2.468.56.66 1.402 1.04 2.31 1.04h8.24c-.429 2.655.216 5.158 1.828 7.06 1.618 1.909 3.998 2.96 6.702 2.96 5.382 0 10.531-4.326 11.478-9.645.023-.126.04-.25.058-.376h32.022c-.428 2.656.216 5.158 1.829 7.061 1.617 1.909 3.997 2.96 6.701 2.96 5.383 0 10.532-4.327 11.479-9.645.022-.126.04-.25.058-.376h5.43c.767 0 1.423-.545 1.557-1.294l2.974-16.701c.404-2.267-.133-4.411-1.512-6.038zm-23.96-2.48l1.822-10.23H91.29l.761 10.23H75.397zm17.79-13.737l-.068.376H77.776l.632-3.549h12.168c.861 0 1.6.313 2.082.881.5.59.687 1.403.528 2.292zM35.646 71.44c-.693 3.891-4.445 7.057-8.364 7.057-1.753 0-3.273-.654-4.279-1.841-1.035-1.222-1.43-2.88-1.11-4.672.692-3.891 4.444-7.057 8.363-7.057 1.753 0 3.273.654 4.28 1.842 1.034 1.22 1.429 2.88 1.11 4.671zm52.088 0c-.693 3.891-4.445 7.057-8.364 7.057-1.753 0-3.272-.654-4.279-1.841-1.035-1.222-1.43-2.881-1.11-4.672.692-3.891 4.445-7.057 8.363-7.057 1.753 0 3.273.654 4.28 1.841 1.034 1.222 1.43 2.881 1.11 4.672zm9.06-12.984h-2.047c-.422 0-.763-.14-.985-.402-.23-.272-.315-.663-.237-1.101l.365-2.046h3.535l-.632 3.549z"></path><path d="M31.377 69.516c-.56-.661-1.401-1.04-2.31-1.04-1.69 0-3.245 1.302-3.541 2.964-.16.901.072 1.801.637 2.468.56.66 1.402 1.04 2.31 1.04 1.69 0 3.245-1.302 3.541-2.964.16-.901-.071-1.801-.637-2.468zM83.465 69.516c-.56-.661-1.401-1.04-2.31-1.04-1.69 0-3.245 1.302-3.54 2.964-.161.901.071 1.8.636 2.468.56.66 1.402 1.04 2.31 1.04 1.69 0 3.245-1.302 3.542-2.964.16-.901-.072-1.801-.638-2.468zM63.79 61.795H43.753c-.873 0-1.582.701-1.582 1.566 0 .865.708 1.566 1.582 1.566H63.79c.873 0 1.581-.7 1.581-1.566 0-.865-.708-1.566-1.581-1.566zM35.318 55.115H6.145c-.873 0-1.582.701-1.582 1.566 0 .864.708 1.566 1.582 1.566h29.173c.873 0 1.581-.701 1.581-1.566 0-.865-.708-1.566-1.581-1.566zM65.517 48.816l-5.855-5.01a1.593 1.593 0 0 0-2.23.16 1.555 1.555 0 0 0 .162 2.209l2.641 2.26H20.136c-.873 0-1.581.7-1.581 1.566 0 .864.708 1.565 1.581 1.565h39.096l-3.262 2.14a1.556 1.556 0 0 0-.445 2.17c.305.455.808.7 1.32.7.3 0 .603-.084.872-.26l7.64-5.01a1.558 1.558 0 0 0 .16-2.49z"></path>
		</symbol>
	
		<symbol id="icon-deliver-prod-icon-3" viewBox="0 0 94 94">
			<path d="M90.958 14.13H3.042A3.045 3.045 0 0 0 0 17.17V76.83a3.045 3.045 0 0 0 3.042 3.042h87.916A3.045 3.045 0 0 0 94 76.829V17.17a3.045 3.045 0 0 0-3.042-3.042zm.098 50.237h-4.808a1.472 1.472 0 0 0 0 2.944h4.808v3.336H67.41a1.472 1.472 0 1 0 0 2.944h23.647v3.238a.098.098 0 0 1-.098.098H3.042a.098.098 0 0 1-.098-.098v-3.238h58.185a1.472 1.472 0 0 0 0-2.944H2.944v-3.336h77.025a1.472 1.472 0 0 0 0-2.944H2.944v-3.34c.032 0 .065.004.098.004h87.916c.033 0 .065-.004.098-.005v3.341zm0-6.377a.098.098 0 0 1-.098.098H3.042a.098.098 0 0 1-.098-.098V17.17c0-.054.044-.098.098-.098h87.916c.054 0 .098.044.098.098V57.99z"></path><path d="M86.249 26.689a4.813 4.813 0 0 1-4.808-4.808c0-.813-.66-1.472-1.472-1.472h-17.27a1.472 1.472 0 0 0 0 2.944h15.938a7.773 7.773 0 0 0 6.14 6.14v16.175a7.773 7.773 0 0 0-6.14 6.14H62.7a1.472 1.472 0 0 0 0 2.943h17.27c.812 0 1.472-.658 1.472-1.471a4.813 4.813 0 0 1 4.808-4.808c.812 0 1.471-.66 1.471-1.472V28.16c0-.812-.659-1.471-1.471-1.471zM31.3 51.808H15.363a7.774 7.774 0 0 0-6.14-6.14V29.493a7.774 7.774 0 0 0 6.14-6.14H31.3a1.472 1.472 0 1 0 0-2.944H14.031c-.812 0-1.472.66-1.472 1.472a4.813 4.813 0 0 1-4.807 4.808c-.813 0-1.472.659-1.472 1.472V47c0 .813.659 1.472 1.471 1.472a4.813 4.813 0 0 1 4.808 4.808c0 .813.66 1.472 1.472 1.472h17.27a1.472 1.472 0 1 0 0-2.944z"></path><path d="M47 20.41c-9.468 0-17.171 7.702-17.171 17.17 0 9.468 7.703 17.172 17.171 17.172s17.171-7.703 17.171-17.172c0-9.468-7.703-17.17-17.171-17.17zm0 31.398c-7.845 0-14.228-6.383-14.228-14.228S39.155 23.353 47 23.353s14.228 6.382 14.228 14.227c0 7.846-6.383 14.228-14.228 14.228z"></path><path d="M48.472 36.45v-5.137c2.099.323 3.336 1.283 3.336 1.852a1.472 1.472 0 0 0 2.944 0c0-2.477-2.614-4.413-6.28-4.824v-.18a1.472 1.472 0 0 0-2.944 0v.18c-3.666.411-6.28 2.348-6.28 4.824 0 3.453 3.45 4.76 6.28 5.546v5.136c-2.099-.323-3.336-1.282-3.336-1.851a1.472 1.472 0 0 0-2.944 0c0 2.476 2.614 4.412 6.28 4.823V47a1.472 1.472 0 0 0 2.944 0v-.18c3.666-.41 6.28-2.347 6.28-4.823 0-3.453-3.45-4.76-6.28-5.547zm-2.944-.817c-2.455-.771-3.336-1.46-3.336-2.468 0-.57 1.237-1.529 3.336-1.851v4.32zm2.944 8.214v-4.32c2.455.772 3.336 1.461 3.336 2.469 0 .569-1.238 1.528-3.336 1.851z"></path>
		</symbol>
	
		<symbol id="icon-deliver-prod-icon-4" viewBox="0 0 66 66">
			<g clip-path="url(#a)"><path d="M55.421 16.814H38.457l11.75-4.7a1.051 1.051 0 0 0-.781-1.952l-9.965 3.986c2.843-1.785 5.84-3.858 6.909-5.258a5.5 5.5 0 0 0 1.084-4.096 5.499 5.499 0 0 0-2.129-3.662 5.542 5.542 0 0 0-7.758 1.044c-.913 1.198-2.132 3.977-3.623 8.26-.345.991-.666 1.953-.944 2.806-.278-.853-.599-1.815-.944-2.806-1.49-4.283-2.71-7.062-3.623-8.26a5.541 5.541 0 0 0-7.758-1.044 5.499 5.499 0 0 0-2.129 3.662 5.5 5.5 0 0 0 1.085 4.096c1.068 1.4 4.065 3.473 6.909 5.258l-9.965-3.986a1.05 1.05 0 1 0-.781 1.952l11.749 4.7H10.579h-.001a3.297 3.297 0 0 0-3.292 3.293v42.6A3.297 3.297 0 0 0 10.579 66H55.42a3.297 3.297 0 0 0 3.293-3.293v-42.6a3.297 3.297 0 0 0-3.293-3.293zM39.238 3.45a3.43 3.43 0 0 1 2.734-1.35c.726 0 1.458.23 2.078.702a3.411 3.411 0 0 1 1.32 2.272 3.411 3.411 0 0 1-.672 2.54c-1.24 1.626-6.392 4.84-9.9 6.89 1.226-3.804 3.194-9.42 4.44-11.054zM21.302 7.615a3.411 3.411 0 0 1-.673-2.54 3.411 3.411 0 0 1 1.32-2.272 3.416 3.416 0 0 1 2.079-.702 3.43 3.43 0 0 1 2.734 1.35c1.246 1.634 3.215 7.25 4.44 11.055-3.508-2.052-8.66-5.264-9.9-6.89zm7.284 11.3v5.38l-5.38-5.38h5.38zm-8.353 0l8.353 8.353v7.117l-15.47-15.47h7.117zM9.388 20.108c0-.526.343-.973.817-1.13l18.38 18.38v7.118L9.389 25.277v-5.17zm1.19 43.791a1.193 1.193 0 0 1-1.19-1.19v-4.19l5.38 5.38h-4.19zm7.163 0l-8.353-8.353v-7.117l15.47 15.47H17.74zm10.845 0h-.756L9.388 45.456v-7.117l3.809 3.81a1.047 1.047 0 0 0 1.486 0c.41-.411.41-1.077 0-1.487l-5.295-5.296V28.25l19.198 19.199v7.117L18.05 44.029a1.05 1.05 0 1 0-1.487 1.487l12.022 12.021v6.361zm6.726 0h-4.624V18.916h4.624v44.982zm2.102-44.983h2.998l3.057 3.058a1.047 1.047 0 0 0 1.487 0 1.05 1.05 0 0 0 0-1.487l-1.571-1.57h7.117l6.11 6.11v7.117l-8.295-8.295a1.05 1.05 0 1 0-1.486 1.486l9.781 9.782v7.117L37.414 23.035v-4.12zm0 44.983v-7.622l7.623 7.622h-7.623zm10.595 0L37.414 53.303v-7.117l17.712 17.712H48.01zm8.603-1.486L37.414 43.214v-7.117l19.198 19.198v7.117zm0-10.09L37.414 33.124v-7.117l19.198 19.198v7.117zm0-30.268l-3.138-3.138h1.947c.657 0 1.191.534 1.191 1.19v1.948z"></path></g><defs><clipPath id="a"><path d="M0 0h66v66H0z"></path></clipPath></defs>
		</symbol>
	
		<symbol id="icon-down-arrow" viewBox="0 0 11 11">
			<path d="M9.76 2.862L5.5 7.131 1.231 2.862a.475.475 0 0 0-.671.671L5.156 8.13c.092.093.21.14.336.14a.481.481 0 0 0 .335-.14l4.595-4.594a.468.468 0 0 0 .01-.673.475.475 0 0 0-.672 0z" stroke="#133350" stroke-width=".25"></path>
		</symbol>
	
		<symbol id="icon-eval-star" viewBox="0 0 14 13">
			<path d="M7 0l1.572 4.837h5.085l-4.114 2.99 1.572 4.836L7 9.673l-4.114 2.99 1.571-4.837-4.114-2.99h5.085L7 0z"></path>
		</symbol>
	
		<symbol id="icon-foot-soc-f" viewBox="0 0 24 24">
			<g clip-path="url(#a)"><path d="M12 23.999c6.627 0 12-5.373 12-12s-5.373-12-12-12-12 5.373-12 12 5.373 12 12 12z"></path><path d="M4.178 12.538c-.043 2.064 1.38 4.035 3.336 4.677 1.842.62 4.108.156 5.334-1.422.895-1.105 1.099-2.58 1.002-3.957-1.578-.014-3.156-.01-4.732-.007-.003.562 0 1.122.002 1.684.945.027 1.89.015 2.835.034-.238.817-.782 1.578-1.606 1.873-1.593.702-3.624-.215-4.125-1.885-.605-1.6.385-3.53 2.02-3.995 1.013-.357 2.057.045 2.925.572.439-.411.85-.85 1.254-1.295-.985-.824-2.252-1.33-3.553-1.219-2.554.03-4.789 2.388-4.692 4.94zM16.92 10.41c-.004.47-.009.943-.011 1.413-.473.005-.943.007-1.413.01v1.408c.47.002.943.004 1.413.01.005.47.005.94.01 1.412.467 0 .937-.002 1.407 0 .003-.473.005-.943.01-1.415l1.413-.007v-1.408c-.47-.002-.943-.005-1.413-.01l-.01-1.412h-1.405z"></path><path d="M4.178 12.537c-.097-2.551 2.138-4.91 4.692-4.94 1.301-.11 2.568.395 3.553 1.22-.404.443-.816.883-1.255 1.294-.867-.527-1.911-.929-2.925-.572-1.634.465-2.624 2.396-2.02 3.995.502 1.67 2.533 2.586 4.125 1.885.825-.295 1.368-1.056 1.607-1.873-.945-.02-1.89-.007-2.835-.034-.002-.562-.005-1.122-.002-1.684 1.575-.002 3.153-.007 4.732.007.096 1.378-.107 2.852-1.002 3.957-1.226 1.578-3.492 2.041-5.335 1.422-1.955-.642-3.378-2.612-3.335-4.677zM16.92 10.41h1.406l.01 1.413c.47.005.942.007 1.413.01v1.408l-1.413.007c-.005.472-.007.942-.01 1.415-.47-.003-.94 0-1.408 0-.004-.473-.004-.943-.01-1.413-.47-.005-.942-.007-1.412-.01v-1.408c.47-.002.94-.004 1.413-.009.002-.47.007-.942.012-1.412z"></path></g><defs><clipPath id="a"><path d="M0 0h24v24H0z"></path></clipPath></defs>
		</symbol>
	
		<symbol id="icon-foot-soc-in" viewBox="0 0 24 24">
			<path d="M15.577 6.385H8.423c-1.141 0-2.07.93-2.07 2.07v7.154c0 1.142.929 2.07 2.07 2.07h7.154c1.141 0 2.07-.928 2.07-2.07V8.456c0-1.142-.928-2.07-2.07-2.07zM12 15.751a3.722 3.722 0 0 1-3.718-3.719A3.722 3.722 0 0 1 12 8.314a3.722 3.722 0 0 1 3.718 3.718A3.723 3.723 0 0 1 12 15.751zm3.838-6.668a.88.88 0 0 1 0-1.76.88.88 0 0 1 0 1.76z"></path><path d="M12 9.886a2.15 2.15 0 0 0-2.147 2.146A2.15 2.15 0 0 0 12 14.18a2.15 2.15 0 0 0 2.147-2.147A2.15 2.15 0 0 0 12 9.886z"></path><path d="M12 0C5.373 0 0 5.373 0 12s5.373 12 12 12 12-5.373 12-12S18.627 0 12 0zm7.218 15.609a3.646 3.646 0 0 1-3.641 3.642H8.423a3.646 3.646 0 0 1-3.641-3.642V8.456a3.646 3.646 0 0 1 3.641-3.642h7.154a3.646 3.646 0 0 1 3.641 3.642v7.153z"></path>
		</symbol>
	
		<symbol id="icon-foot-soc-vk" viewBox="0 0 24 24">
			<path d="M12 24c6.627 0 12-5.373 12-12S18.627 0 12 0 0 5.373 0 12s5.373 12 12 12z"></path><path fill-rule="evenodd" clip-rule="evenodd" d="M11.547 17.263h.942s.284-.031.43-.188c.133-.144.129-.413.129-.413s-.019-1.264.568-1.45c.578-.184 1.32 1.221 2.107 1.761.596.409 1.048.32 1.048.32l2.104-.03s1.1-.068.579-.933c-.043-.071-.304-.64-1.565-1.81-1.319-1.225-1.142-1.027.447-3.146.968-1.29 1.355-2.077 1.234-2.415-.115-.32-.827-.236-.827-.236l-2.37.015s-.175-.024-.305.054a.665.665 0 0 0-.21.254s-.375.998-.875 1.847c-1.055 1.792-1.476 1.886-1.649 1.775-.4-.26-.3-1.041-.3-1.597 0-1.736.262-2.46-.514-2.647-.257-.063-.447-.104-1.105-.11-.846-.01-1.561.002-1.966.2-.27.133-.478.427-.351.444.156.02.511.095.7.351.242.33.233 1.072.233 1.072s.14 2.044-.325 2.298c-.32.174-.758-.181-1.698-1.807-.482-.832-.846-1.752-.846-1.752s-.07-.172-.196-.264c-.151-.112-.364-.147-.364-.147l-2.251.014s-.338.01-.462.157c-.11.13-.009.4-.009.4s1.763 4.125 3.759 6.203c1.83 1.905 3.908 1.78 3.908 1.78z"></path>
		</symbol>
	
		<symbol id="icon-icon-phone-mob" viewBox="0 0 84 84">
			<g clip-path="url(#a)"><path d="M63.862 55.568c-2.744-2.71-6.17-2.71-8.897 0-2.08 2.062-4.16 4.125-6.205 6.222-.56.577-1.031.7-1.713.315-1.346-.734-2.78-1.328-4.073-2.133-6.03-3.793-11.082-8.67-15.556-14.158-2.22-2.727-4.196-5.646-5.576-8.932-.28-.664-.228-1.101.314-1.643 2.08-2.01 4.108-4.073 6.153-6.135 2.85-2.867 2.85-6.223-.018-9.107-1.625-1.643-3.25-3.252-4.876-4.895-1.678-1.678-3.339-3.373-5.034-5.034-2.745-2.674-6.17-2.674-8.898.018-2.097 2.062-4.107 4.177-6.24 6.205-1.975 1.87-2.971 4.16-3.181 6.834-.332 4.353.734 8.46 2.237 12.464 3.077 8.285 7.761 15.644 13.442 22.39 7.674 9.125 16.833 16.344 27.548 21.553 4.824 2.343 9.823 4.143 15.26 4.44 3.74.21 6.991-.734 9.596-3.653 1.783-1.993 3.793-3.81 5.68-5.716 2.798-2.832 2.815-6.258.036-9.054-3.321-3.34-6.66-6.66-9.999-9.981zM60.524 41.636l6.45-1.1c-1.014-5.926-3.81-11.293-8.058-15.558-4.492-4.492-10.173-7.324-16.431-8.198l-.909 6.485a22.245 22.245 0 0 1 12.725 6.345 22.243 22.243 0 0 1 6.223 12.026zM70.61 13.6C63.163 6.152 53.742 1.45 43.34 0l-.909 6.485c8.985 1.258 17.13 5.331 23.563 11.746 6.1 6.1 10.103 13.81 11.554 22.287l6.45-1.102c-1.695-9.823-6.328-18.738-13.39-25.817z"></path></g><defs><clipPath id="a"><path d="M0 0h84v84H0z"></path></clipPath></defs>
		</symbol>
	
		<symbol id="icon-item-adv-1" viewBox="0 0 75 85">
			<g clip-path="url(#a)" filter="url(#b)"><path d="M63.68 7.268c-.606-.809-1.681-1.283-2.876-1.268-1.02.013-2 .355-2.788.628a199.098 199.098 0 0 0-18.822 7.658c-.835-.878-1.873-1.54-2.878-1.86-2.159-.688-5.33.068-7.578 1.006-2.375.99-4.169 2.729-4.923 4.77-.604 1.634-.458 3.618.381 5.145.321.585.752 1.05 1.254 1.42a.632.632 0 0 0 .018.1c.085.302.12.648.102 1.026-.06 1.282-.66 2.47-1.294 3.725-.29.573-.589 1.166-.836 1.775a9.471 9.471 0 0 0-.502 1.627l-.186.01c-1.145.05-2.33.352-3.463.529l-2.21.344c-1.526.239-3.225.612-4.07 2.038-.442.745-.546 1.648-.299 2.61.203.789.64 1.593 1.231 2.264a8.87 8.87 0 0 0 1.808 1.548c-1.984 1.585-3.451 3.801-4.258 6.449-.829 2.717-.868 5.687-.11 8.364 1.447 5.109 5.576 9.54 11.045 11.853C25.52 70.338 29.046 71 32.825 71c1.897 0 3.858-.167 5.86-.503 4.657-.781 8.257-2.258 11.003-4.516 3.7-3.04 5.908-7.711 5.909-12.499.001-4.64-2.073-9.175-5.568-12.219.738-.417 1.44-.945 1.955-1.665.836-1.166 1.102-3.057-.05-4.264-.75-.783-1.81-.997-2.83-1.148a102.025 102.025 0 0 0-19.67-.986c-.48.022-.966-.047-1.444.044a1.19 1.19 0 0 0-.133.037 3.51 3.51 0 0 1 .214-2.249c.201.457.577.841 1.06 1.075.566.275 1.203.305 1.747.085.553-.225 1.034-.697 1.354-1.33.394-.778.537-1.742.413-2.788-.086-.73-.284-1.42-.496-2.091 1.85-.213 3.7-.785 5.23-1.765 1.907-1.221 3.192-3.155 3.48-5.136l18.21-5.359c1.253-.368 2.811-.826 3.932-1.909 1.483-1.432 1.51-3.436.679-4.546zm-32.762 6.71a17.347 17.347 0 0 1 3.762 6.745c.368 1.264.502 2.293.423 3.235a12.4 12.4 0 0 1-2.635.718c.666-1.445.83-2.944.438-4.219-.186-.605-.467-1.041-.86-1.331-.498-.37-1.187-.483-1.843-.303-.504.139-.982.437-1.421.888-.11.113-.211.228-.309.34-.175.2-.34.388-.52.516-.198.14-.423.174-.51.117-.104-.068-.148-.322-.098-.566.095-.46.393-.89.71-1.345.192-.278.392-.565.56-.88.379-.703.464-1.375.249-1.944a1.887 1.887 0 0 0-.646-.835c.849-.49 1.777-.865 2.7-1.135zm-5.912 4.663c.404-1.094 1.13-1.993 2.028-2.72.28.092.556.251.643.48.108.284-.066.68-.18.89-.134.252-.305.497-.485.758-.375.54-.764 1.099-.91 1.812-.162.784.092 1.524.648 1.887.55.358 1.31.3 1.939-.147.3-.213.533-.48.739-.714.09-.103.176-.2.263-.29.28-.287.565-.472.848-.55.279-.076.567-.038.752.098.164.122.299.352.4.685.36 1.172.09 2.63-.741 4.003-.18.01-.358.016-.536.018-1.402.016-2.96-.187-4.12-1.043-1.432-1.058-1.986-3.279-1.288-5.167zM28.361 36.9c.588-.023 1.21.24 1.865.516.186.078.371.157.556.229a9.85 9.85 0 0 0 5.885.382c.566-.14 1.116-.33 1.649-.513.914-.315 1.779-.613 2.668-.654a5.474 5.474 0 0 1 1.739.222c.587.167 1.34.483 1.798 1.062-.448.123-.89.236-1.322.344-9.184 2.289-16.346 2.523-22.54.735-.866-.25-1.665-.53-2.404-.84 1.194-.846 2.802-1.316 4.985-1.463.33.733.808 1.307 1.39 1.66.431.262.913.395 1.382.395.367 0 .725-.08 1.045-.245.659-.337 1.134-1.01 1.304-1.83zm-11.087-1.74l.618-.098 3.064-.478 1.507-.235c.101-.016.205-.029.308-.045-.019.474.01.933.088 1.37-2.578.216-4.51.906-5.889 2.103a12.592 12.592 0 0 1-2.43-1.648c.711-.636 1.826-.829 2.734-.97zM48.883 65c-2.571 2.113-5.976 3.502-10.408 4.245-5.752.965-11.13.486-15.555-1.385-5.118-2.165-8.974-6.288-10.317-11.03-.677-2.389-.803-5.128.07-7.489 6.255 2.85 13.264 4.451 20.313 4.636.46.012.92.018 1.381.018 6.756 0 13.5-1.294 19.596-3.765.24 1.062.365 2.153.365 3.252C54.326 57.893 52.29 62.2 48.883 65zm4.746-16c-.012.004-.026.006-.04.011-6.377 2.603-13.49 3.883-20.57 3.696-6.904-.18-13.766-1.753-19.882-4.55.327-.816.673-1.606 1.185-2.366.357-.531.757-1.034 1.2-1.498.146-.154 1.245-1.34 1.43-1.25.69.334 1.439.613 2.239.83 1.886.512 3.85.652 5.865.762 2.108.114 4.245.196 6.386.196 5.91 0 11.843-.625 17.23-2.913.042-.017.082-.035.123-.053a.684.684 0 0 0 .094.096 15.008 15.008 0 0 1 4.74 7.038zm-2.676-10.142c-.645.9-1.716 1.44-2.776 1.891-6.706 2.848-14.065 3.107-23.052 2.618-2.018-.11-3.832-.24-5.602-.72-1.957-.53-3.557-1.454-4.63-2.67-.6-.683-1.178-1.761-.996-2.729 1.64 1.376 3.746 2.425 6.41 3.194 2.845.82 5.877 1.232 9.19 1.232 4.163 0 8.771-.65 14.01-1.956 2.501-.623 5.363-1.434 7.71-3.159.457.652.162 1.704-.264 2.299zm-20.359-4.434a101.329 101.329 0 0 1 8.862.074c3.167.165 6.325.48 9.462.944.421.063.838.157 1.226.323-1.33.905-2.842 1.526-4.348 2.003-.5-.883-1.441-1.543-2.724-1.908-.737-.21-1.46-.3-2.146-.269-1.072.05-2.064.391-3.023.722a18.08 18.08 0 0 1-1.54.481 8.567 8.567 0 0 1-5.119-.333c-.174-.068-.348-.142-.523-.215-.702-.297-1.484-.625-2.32-.616a7.916 7.916 0 0 0-.22-1.09c.786.06 1.647-.089 2.413-.116zm.79-6.201c.066.556.07 1.366-.285 2.066-.181.36-.43.618-.698.727-.208.084-.476.065-.717-.051-.24-.117-.42-.315-.484-.531-.074-.257-.05-.58.08-1.043a.635.635 0 0 0-1.008-.667 4.828 4.828 0 0 0-1.766 4.076c.045.595.198 1.15.346 1.687l.09.33c.148.554.274 1.14.203 1.68-.067.504-.322.926-.665 1.101-.336.172-.803.131-1.19-.104-.475-.289-.762-.787-.92-1.155-.702-1.64-.148-3.503.245-4.468.229-.56.517-1.13.795-1.681.666-1.32 1.355-2.685 1.428-4.238.007-.152.006-.3 0-.446.953.358 2.006.515 3 .56.331.015.669.018 1.008.009.227.705.453 1.43.538 2.148zm5.31-5.073a9.024 9.024 0 0 1-.3.182c-.011-.894-.172-1.855-.494-2.963a18.63 18.63 0 0 0-3.59-6.724c.87-.162 1.774-.226 2.647-.055.336.564.643 1.158.94 1.738 1.008 1.967 2.143 4.189 2.32 6.492-.445.52-.966.973-1.523 1.33zm2.551-2.976c-.445-1.959-1.374-3.777-2.218-5.425a76.673 76.673 0 0 0-.415-.8c.129.049.255.104.374.173 1.364.792 2.58 2.287 2.66 3.912a4.886 4.886 0 0 1-.4 2.14zm22.873-9.272c-.895.864-2.23 1.257-3.407 1.603l-17.814 5.242c-.085-.87-.413-1.7-.893-2.438a197.638 197.638 0 0 1 18.43-7.482c.737-.256 1.572-.547 2.386-.557.792-.009 1.48.274 1.843.759.492.657.391 1.969-.544 2.873z"></path></g><defs><filter id="b" x="-5" y="0" width="85" height="85" filterUnits="userSpaceOnUse" color-interpolation-filters="sRGB"><feFlood flood-opacity="0" result="BackgroundImageFix"></feFlood><feColorMatrix in="SourceAlpha" values="0 0 0 0 0 0 0 0 0 0 0 0 0 0 0 0 0 0 127 0"></feColorMatrix><feOffset dy="4"></feOffset><feGaussianBlur stdDeviation="5"></feGaussianBlur><feColorMatrix values="0 0 0 0 1 0 0 0 0 0.72 0 0 0 0 0 0 0 0 1 0"></feColorMatrix><feBlend in2="BackgroundImageFix" result="effect1_dropShadow"></feBlend><feBlend in="SourceGraphic" in2="effect1_dropShadow" result="shape"></feBlend></filter><clipPath id="a"><path transform="translate(5 6)" d="M0 0h65v65H0z"></path></clipPath></defs>
		</symbol>
	
		<symbol id="icon-item-adv-2" viewBox="0 0 86 86">
			<path d="M75.708 45.177c-1.3-.85-2.527-1.585-3.714-2.296-1.168-.701-2.377-1.426-3.646-2.254l-.144-7.714a.644.644 0 0 0-.399-.583l-11.761-4.86c.32-.105.617-.199.908-.29.574-.182 1.167-.369 1.93-.642a.644.644 0 0 0 .426-.567l.753-12.235a.644.644 0 0 0-.406-.639L46.058 7.7c-1.024-.406-2.185-.867-3.439-.788-1.14.072-2.155.581-3.05 1.031L14.936 20.3a.644.644 0 0 0-.353.634l1.203 13.457a.643.643 0 0 0 .393.537l11.793 4.95c1.084.454 2.311.969 3.63 1.01.061.003.123.004.184.004 2.053 0 3.832-1.087 5.59-2.394l.49 1.965c-.02.008-.041.014-.061.025L26.332 46.56a.638.638 0 0 0-.248.236l-10.043-5.918c-.182-.108-.373-.228-.576-.354-.955-.597-2.038-1.274-3.215-1.339-.836-.046-1.349.313-1.631.622-.505.552-.716 1.418-.577 2.374.234 1.62 1.434 2.813 2.577 3.765a25.407 25.407 0 0 0 8.248 4.57l-6.131 4.311a.644.644 0 0 0-.026 1.035c4.6 3.592 9.542 6.807 14.322 9.916 2.2 1.43 4.474 2.909 6.685 4.406.548.37 1.23.832 2.042.95.144.022.285.031.426.031 1.098 0 2.096-.593 2.783-1a275.492 275.492 0 0 0 13.95-8.875c1.132-.768 2.284-1.54 3.399-2.287 3.32-2.225 6.752-4.526 10.037-6.989l.542-.406a227.415 227.415 0 0 0 6.867-5.392.644.644 0 0 0-.055-1.04zm-8.62-3.04c.01.555.02 1.13-.185 1.584-.26.573-.872.982-1.587 1.419l-11.433 6.998c-.45.275-.874.521-1.284.663l-.13-12.776 14.464-6.12.154 8.231zm-1.182-9.198l-14.022 5.933a.631.631 0 0 0-.215.15l-13.234-5.61a7.05 7.05 0 0 1 .586-.324l12.247-6.196 14.638 6.047zm-25.737-9.878c.941-.538 1.969-.965 2.946-1.426a276.79 276.79 0 0 1 7.332-3.328l-.466 7.81c-.377.174-.748.36-1.118.547l-7.16 3.622c-.59.3-1.189.583-1.78.877l.246-8.102zm17.879 2.404c-.557.193-1.027.34-1.484.485a48.4 48.4 0 0 0-1.93.641.631.631 0 0 0-.267.186c-.753-.31-1.505-.622-2.258-.933-.228-.094-.532-.27-.803-.299l.466-7.812a275.738 275.738 0 0 1 6.928-2.872l-.652 10.604zM40.147 9.095c.824-.414 1.676-.842 2.554-.898.965-.06 1.983.344 2.881.7l12.325 4.893a272.669 272.669 0 0 0-5.74 2.375c-.729-.75-1.756-1.061-2.59-1.314a153.882 153.882 0 0 1-12.319-4.308l2.889-1.449zm-12.85 6.445l6.216-3.118 2.205-1.107c4.4 1.79 8.937 3.395 13.485 4.77.575.174 1.163.353 1.63.65a279.041 279.041 0 0 0-11.49 5.285l-.023-.011a258.247 258.247 0 0 0-15.012-4.779c.107-.067.213-.136.315-.207.836-.59 1.752-1.02 2.674-1.482zm-7.503 3.765c.912-.458 1.932-.822 2.906-1.248a.632.632 0 0 0 .232.122c4.953 1.39 9.92 2.949 14.787 4.638-.64.317-1.28.634-1.916.955-.613.31-1.225.622-1.835.936-.277.143-1.457.977-1.724.895L16.75 20.831l3.044-1.526zm11.72 10.711l-.032 3.068c-.014 1.3-.068 2.603-.088 3.905a52.439 52.439 0 0 0-.002 1.51 52.032 52.032 0 0 0-3.982-6.957 100.062 100.062 0 0 1 4.184-3.85c.06.753-.072 1.6-.08 2.324zm-14.54 2.906c-.041-.845-.067-1.674-.25-2.525-.143-.672-.127-1.422-.188-2.107-.134-1.496-.104-2.998-.242-4.48l4.245 5.959-3.565 3.153zm4.536-4.012l-4.831-6.782c.151.06.283.117.337.134l1.897.584a21053.204 21053.204 0 0 1 10.28 3.167c.4.123 1.17.284 1.716.565a101.887 101.887 0 0 0-4.247 3.895 52.317 52.317 0 0 0-1.607-2.127c-.177-.223-.475-.596-.946-.738-.843-.252-1.554.377-1.858.645l-.741.657zm-3.937 5.204l5.532-4.895c.431-.382.586-.39.634-.376.085.026.236.216.309.307A50.765 50.765 0 0 1 30.4 39.423c-.666-.178-1.324-.482-1.928-.735l-10.899-4.574zm19.069-.573c-.311.763-.113 1.558.031 2.138l.365 1.46c-1.43 1.088-2.845 2.065-4.335 2.366l.135-12.758c.001-.154 1.524-.792 1.716-.89.607-.314 1.217-.624 1.826-.932.798-.403 1.67-.707 2.476-1.105l-.243 8.029c-.772.42-1.619.829-1.971 1.692zm1.13.99l13.409 5.685.13 12.604v.002c-.373-.13-.741-.351-1.078-.556-.922-.56-1.856-1.14-2.759-1.699-1.827-1.132-3.716-2.302-5.612-3.391-.904-.519-1.147-.658-1.389-1.588a224.27 224.27 0 0 1-.795-3.175c-.131-.533-.262-1.066-.395-1.597l-1.359-5.45a4.768 4.768 0 0 1-.153-.835zM13.443 44.956c-.955-.796-1.955-1.77-2.127-2.959-.08-.556.017-1.061.253-1.32.083-.09.227-.206.536-.206.024 0 .048 0 .073.002.846.046 1.78.63 2.604 1.144.21.131.407.255.604.371L46.9 60.56a28.012 28.012 0 0 1-11.447-.065c-2.925-.632-4.914-1.686-6.08-3.221-1.334-1.758-1.605-4.15-1.843-6.262a.645.645 0 0 0-.59-.57 24.166 24.166 0 0 1-13.496-5.486zm54.675 5.622l-.538.405c-3.258 2.442-6.676 4.734-9.982 6.95-1.116.747-2.27 1.52-3.404 2.29a273.315 273.315 0 0 1-13.886 8.833c-.818.486-1.613.913-2.363.803-.522-.076-1.023-.415-1.507-.743a434.618 434.618 0 0 0-6.704-4.419c-4.518-2.939-9.183-5.972-13.543-9.318l6.102-4.29a.63.63 0 0 0 .12-.113c1.278.336 2.581.574 3.895.704.24 2.063.611 4.494 2.038 6.373 1.36 1.791 3.595 3.002 6.834 3.701a29.215 29.215 0 0 0 13.598-.31.643.643 0 0 0 .162-1.178L27.294 47.51l10.891-5.764.24.975c.258 1.047.524 2.13.801 3.193.362 1.388.932 1.771 1.993 2.38 1.878 1.08 3.758 2.244 5.577 3.37.905.561 1.842 1.142 2.767 1.705.571.346 1.282.779 2.111.845.077.006.153.009.228.009 1.045 0 1.968-.565 2.654-.985L65.99 46.24c.693-.424 1.643-1.006 2.087-1.986.314-.694.311-1.452.3-2.075 1.022.649 2.002 1.237 2.955 1.809.946.566 1.918 1.15 2.927 1.79a225.084 225.084 0 0 1-6.14 4.801z" filter="url(#a)"></path><defs><filter id="a" x="0" y="0" width="86" height="86" filterUnits="userSpaceOnUse" color-interpolation-filters="sRGB"><feFlood flood-opacity="0" result="BackgroundImageFix"></feFlood><feColorMatrix in="SourceAlpha" values="0 0 0 0 0 0 0 0 0 0 0 0 0 0 0 0 0 0 127 0"></feColorMatrix><feOffset dy="4"></feOffset><feGaussianBlur stdDeviation="5"></feGaussianBlur><feColorMatrix values="0 0 0 0 1 0 0 0 0 0.72 0 0 0 0 0 0 0 0 1 0"></feColorMatrix><feBlend in2="BackgroundImageFix" result="effect1_dropShadow"></feBlend><feBlend in="SourceGraphic" in2="effect1_dropShadow" result="shape"></feBlend></filter></defs>
		</symbol>
	
		<symbol id="icon-item-adv-3" viewBox="0 0 80 86">
			<g filter="url(#a)"><path d="M69.657 58.447l-1.058-45.291c-.096-4.111-1.428-6.51-3.752-6.755-1.262-.133-2.564-.106-3.823-.08-.587.012-1.192.025-1.774.02L18.28 6c-2.349-.018-4.989.116-6.583 1.977-1.403 1.639-1.364 4.036-1.338 5.622l.788 48.488c.013.835.034 2.096.819 2.986.615.697 1.473.953 2.348 1.05l-.138 3.752c-.013.344-.034.919.31 1.385.49.664 1.364.675 1.784.68l4.615.058.164.001c.592 0 1.667-.067 2.18-.937.263-.445.265-.937.265-1.297l.011-3.486a910.1 910.1 0 0 0 32.178-.328l-.037 5.136a.644.644 0 0 0 .62.648l5.722.213c.083.003.176.006.278.006.4 0 .92-.054 1.336-.403.652-.547.632-1.428.622-1.901l-.091-4.123c2.006-.338 3.912-1.111 4.875-2.913.715-1.337.678-2.906.649-4.168zm-56.98-49.63c1.165-1.361 3.282-1.528 5.248-1.528.116 0 .23 0 .345.002l40.97.338c.599.005 1.215-.007 1.81-.02 1.22-.025 2.48-.05 3.662.074 2.154.227 2.552 3.545 2.598 5.502l.106 4.518c-8.997.545-18.173.364-27.052.187-9.392-.187-19.098-.379-28.641.287l-.075-4.598c-.03-1.842.026-3.591 1.029-4.762zm9.528 60.945c0 .224-.001.502-.086.646-.166.282-.774.308-1.218.302l-4.615-.057c-.161-.003-.653-.009-.763-.158-.076-.103-.065-.396-.059-.571l.138-3.737c2.201.036 4.406.063 6.614.083l-.01 3.492zm40.57.802c-.142.119-.515.105-.74.097l-5.095-.19.032-4.555c1.484-.044 2.967-.09 4.448-.14a26.34 26.34 0 0 0 1.427-.086l.088 3.99c.005.22.017.735-.16.884zm5.096-8.557c-1.083 2.027-3.891 2.391-6.496 2.48-15.244.524-30.706.66-45.957.408-.971-.017-1.963-.081-2.485-.673-.435-.494-.484-1.3-.497-2.155l-.145-8.92-.35-21.544-.197-12.136c9.508-.667 19.208-.476 28.594-.288 8.888.176 18.074.358 27.108-.187l.288 12.334.492 21.094.142 6.057c.028 1.168.059 2.492-.497 3.53z"></path><path d="M23.538 25.499c.612.222 1.238.25 1.79.276a217.148 217.148 0 0 0 20.838-.053c1.942-.098 4.066-.232 6.497-.41.602-.044 1.352-.098 2.023-.434 1.136-.567 1.378-1.525 1.226-2.233-.202-.934-1.08-1.615-2.138-1.656-1.39-.053-2.804-.057-4.171-.06-.74-.002-1.505-.004-2.254-.013a5292.375 5292.375 0 0 0-21.114-.237c-.85-.007-1.909-.018-2.84.452-1.273.643-1.71 1.981-1.398 2.903.222.655.783 1.189 1.541 1.465zm.439-3.217c.555-.28 1.254-.316 1.911-.316l.334.002a5429.615 5429.615 0 0 1 21.11.237c.756.01 1.525.012 2.268.013 1.355.003 2.757.007 4.124.06.547.02.865.346.928.64.066.308-.131.602-.542.807-.444.222-1.001.262-1.54.302-2.422.176-4.538.31-6.47.408-6.872.348-13.84.365-20.714.052-.482-.022-.98-.045-1.407-.2-.382-.139-.667-.388-.761-.666-.166-.489.259-1.087.759-1.339zM19.903 16.472c.71.312 1.392.468 2.036.468.26 0 .515-.025.762-.077 1.177-.244 2.23-1.13 2.747-2.31.456-1.041.511-2.28.155-3.488-.36-1.222-1.309-2.277-2.476-2.754-1.023-.418-2.107-.358-3.052.17-1.22.68-2.222 2.062-2.55 3.521-.257 1.138-.073 2.222.518 3.053.411.578 1.037 1.055 1.86 1.417zm-1.121-4.187c.248-1.1 1.02-2.177 1.921-2.68.764-.425 1.475-.29 1.937-.1.148.06.29.134.427.22a28.421 28.421 0 0 0-1.4 2.15.645.645 0 0 0 1.111.653c.378-.643.789-1.276 1.22-1.887.16.243.286.51.368.788.27.917.235 1.843-.1 2.607-.352.804-1.052 1.404-1.827 1.565-.737.153-1.504-.084-2.018-.31-.606-.267-1.054-.597-1.328-.983-.481-.678-.435-1.474-.311-2.023zM37.264 16.472c.704.309 1.4.466 2.05.466.258 0 .508-.025.749-.075 1.177-.244 2.23-1.13 2.746-2.31.456-1.041.512-2.28.156-3.488-.36-1.222-1.309-2.277-2.476-2.754-1.024-.418-2.108-.358-3.052.169-1.22.681-2.222 2.063-2.551 3.522-.256 1.138-.073 2.222.519 3.053.41.578 1.036 1.055 1.86 1.417zm-1.12-4.187c.086-.383.237-.763.434-1.117.4.345.777.718 1.124 1.115a.643.643 0 0 0 .909.062.645.645 0 0 0 .062-.91 12.512 12.512 0 0 0-1.314-1.294c.22-.214.458-.397.706-.535.763-.426 1.474-.29 1.937-.102a3.049 3.049 0 0 1 1.726 1.925c.27.917.235 1.843-.1 2.607-.352.804-1.052 1.404-1.827 1.565-.737.153-1.504-.084-2.018-.31-.606-.267-1.053-.597-1.327-.983-.483-.678-.436-1.474-.313-2.023zM55.733 16.472c.704.309 1.399.466 2.049.466.257 0 .508-.025.75-.075 1.176-.244 2.228-1.13 2.746-2.31.456-1.042.511-2.28.155-3.489-.36-1.221-1.309-2.277-2.476-2.753-1.023-.418-2.108-.358-3.052.169-1.22.681-2.221 2.063-2.55 3.522-.257 1.137-.073 2.222.518 3.053.411.578 1.037 1.055 1.86 1.417zm-1.12-4.187c.247-1.1 1.02-2.177 1.92-2.68.764-.425 1.475-.29 1.937-.1.309.125.595.31.846.537l-2.042 2.432a.644.644 0 0 0 .988.829l1.827-2.176c.041.099.077.2.107.302.27.917.236 1.843-.1 2.607-.351.804-1.052 1.404-1.827 1.565-.736.153-1.504-.084-2.017-.31-.607-.267-1.054-.597-1.328-.983-.482-.678-.436-1.474-.312-2.023zM64.614 30.058c-.103-.942-.266-1.917-1.02-2.577-.73-.64-1.734-.688-2.398-.72-14.482-.694-29.151.42-43.338 1.497-.684.052-2.763.21-3.295 1.873-.35 1.09-.364 2.347-.378 3.562-.005.49-.011.95-.039 1.377a342.01 342.01 0 0 0-.66 16.12c-.044 2.47-.047 4.698.342 6.955.172.993.453 2.127 1.234 2.997 1.057 1.179 2.648 1.496 4.21 1.663 2.427.259 4.88.325 7.307.325 1.295 0 2.584-.019 3.857-.038 9.83-.144 19.997-.294 29.983-.963 1.496-.1 2.931-.265 4.06-1.172 1.444-1.16 1.79-3.1 1.926-4.459.228-2.292.102-4.568-.072-7.092a493.864 493.864 0 0 0-1.72-19.348zm.508 26.313c-.179 1.792-.64 2.93-1.45 3.581-.838.673-2.008.801-3.34.891-9.952.667-20.1.816-29.915.96-3.62.054-7.364.11-11.008-.28-1.306-.14-2.621-.386-3.388-1.24-.562-.629-.782-1.545-.922-2.358-.371-2.145-.367-4.31-.325-6.714a342.013 342.013 0 0 1 .66-16.058c.029-.46.034-.939.04-1.445.013-1.12.026-2.278.316-3.184.183-.57.87-.882 2.166-.98 14.147-1.075 28.776-2.185 43.18-1.495.64.031 1.246.085 1.608.402.406.355.51 1.029.588 1.747a491.172 491.172 0 0 1 1.715 19.297c.17 2.465.293 4.683.075 6.876z"></path><path d="M63.605 49.87c-.83-.502-1.845-.477-2.741-.456-.24.006-.466.011-.67.006l-2.81-.074-.527-.013-.442-.012-1.413-.037 2.353-6.078a.644.644 0 0 0-.439-.857c1.17-1.556 1.526-3.748.772-5.551-.263-.63-.766-1.47-1.666-1.886-.786-.364-1.617-.301-2.469-.2-.593.072-1.56.189-2.347.683-.281-.62-.64-1.267-1.164-1.792a4.204 4.204 0 0 0-3.748-1.142 4.204 4.204 0 0 0-2.394 1.432c-.906-1.265-2.472-2.067-4.032-1.968-1.545.099-2.98 1.074-3.725 2.421a5.335 5.335 0 0 0-2.815-1.568 5.334 5.334 0 0 0-4.275 1.022c-.533.418-1.055 1.048-1.279 1.784-1.327-.443-2.915.072-3.968.967-1.099.932-1.82 2.235-1.98 3.575-.15 1.25.208 2.536.946 3.488a.963.963 0 0 0-.122.118c-.317.363-.338.854-.064 1.458a75.688 75.688 0 0 0 2.088 4.235c-.49.02-.985.034-1.469.049-2.044.06-4.159.123-6.173.509-.395.075-1.216.232-1.677.88-.615.866-.217 2.032.503 2.616.635.515 1.422.66 2.179.742 1.259.134 2.54.14 3.684.14h.164A732.968 732.968 0 0 0 62.33 53.23c.504-.028 1.55-.086 2.046-.925.517-.873.017-1.965-.77-2.435zm-40.5-9.591c.122-1.02.682-2.022 1.535-2.746 1.189-1.01 2.596-1.005 3.269-.416a.645.645 0 0 0 1.059-.6c-.119-.654.4-1.326.88-1.703a4.027 4.027 0 0 1 3.229-.771 4.028 4.028 0 0 1 2.689 1.945.644.644 0 0 0 1.192-.185c.291-1.387 1.578-2.501 2.992-2.592 1.413-.09 2.832.851 3.298 2.19a.645.645 0 0 0 1.204.036 2.94 2.94 0 0 1 2.092-1.711 2.94 2.94 0 0 1 2.586.788c.584.586.93 1.448 1.234 2.208a.645.645 0 0 0 1.123.135c.43-.603 1.371-.762 2.22-.865.687-.082 1.294-.133 1.773.09.41.189.771.62 1.019 1.212.725 1.735.113 3.94-1.393 5.063L35.22 42.7c-3.628.062-7.373.128-11.061.554a.62.62 0 0 0-.101-.13c-.715-.694-1.08-1.785-.953-2.846zm.632 4.325c3.806-.48 7.72-.548 11.506-.614l20.565-.356-2.175 5.614c-1.578-.04-3.188-.078-4.78-.11-5.986-.122-10.604-.134-14.972-.04-2.583.055-5.195.145-7.78.264a74.625 74.625 0 0 1-2.341-4.705l-.023-.053zm39.53 7.044c-.147.247-.773.281-1.009.294a731.473 731.473 0 0 1-40.373 1.13c-1.154 0-2.46 0-3.71-.134-.56-.06-1.13-.157-1.505-.461-.282-.229-.413-.658-.264-.868.141-.199.518-.294.867-.36 1.914-.367 3.977-.428 5.97-.487.688-.021 1.399-.042 2.089-.075 2.843-.138 5.728-.239 8.577-.3 1.912-.041 3.873-.062 5.977-.062 2.682 0 5.597.033 8.941.101 2.537.052 5.123.119 7.554.183l.969.026 2.81.074c.237.006.49 0 .735-.006.755-.018 1.535-.038 2.046.272.255.152.425.504.326.673z"></path></g><defs><filter id="a" x="-3" y="0" width="86" height="86" filterUnits="userSpaceOnUse" color-interpolation-filters="sRGB"><feFlood flood-opacity="0" result="BackgroundImageFix"></feFlood><feColorMatrix in="SourceAlpha" values="0 0 0 0 0 0 0 0 0 0 0 0 0 0 0 0 0 0 127 0"></feColorMatrix><feOffset dy="4"></feOffset><feGaussianBlur stdDeviation="5"></feGaussianBlur><feColorMatrix values="0 0 0 0 1 0 0 0 0 0.72 0 0 0 0 0 0 0 0 1 0"></feColorMatrix><feBlend in2="BackgroundImageFix" result="effect1_dropShadow"></feBlend><feBlend in="SourceGraphic" in2="effect1_dropShadow" result="shape"></feBlend></filter></defs>
		</symbol>
	
		<symbol id="icon-logo" viewBox="0 0 517.147 517.147">
			<path d="M258.573 0C116.855 0 0 116.855 0 258.573s116.855 258.573 258.573 258.573 258.573-116.855 258.573-258.573S400.292 0 258.573 0zm0 492.284c-129.287 0-233.711-104.424-233.711-233.711s104.425-233.71 233.711-233.71 233.711 104.424 233.711 233.711-104.424 233.71-233.711 233.71z"></path><path d="M258.573 166.581c-49.726 0-91.992 42.267-91.992 91.992s42.267 91.992 91.992 91.992 91.992-42.267 91.992-91.992-42.266-91.992-91.992-91.992zm0 159.122c-37.294 0-67.13-29.835-67.13-67.13s29.835-67.13 67.13-67.13 67.13 29.835 67.13 67.13-29.835 67.13-67.13 67.13zM109.396 231.224c0-67.13 54.698-121.828 121.828-121.828 7.459 0 12.431-4.973 12.431-12.431s-4.973-12.431-12.431-12.431c-82.047 0-146.691 67.13-146.691 146.691 0 7.459 4.973 12.431 12.431 12.431 7.46 0 12.432-4.973 12.432-12.432zM358.025 104.424c-7.459 0-12.431 4.973-12.431 12.431v24.863c0 7.459 4.973 12.431 12.431 12.431s12.431-4.973 12.431-12.431v-24.863c0-7.459-4.972-12.431-12.431-12.431zM114.369 295.868c-2.486-7.459-9.945-9.945-14.918-7.459-7.459 2.486-9.945 9.945-7.459 14.918l4.973 19.89c2.486 4.973 7.459 7.459 12.431 7.459h4.973c7.459-2.486 9.945-9.945 7.459-14.918l-7.459-19.89zM171.553 365.484H146.69c-7.459 0-12.431 4.973-12.431 12.431s4.973 12.431 12.431 12.431h24.863c7.459 0 12.431-4.973 12.431-12.431s-4.972-12.431-12.431-12.431zM320.73 385.374l-19.89 19.89c-4.973 4.973-4.973 12.431 0 17.404 2.486 2.486 4.973 2.486 9.945 2.486s7.459 0 9.945-2.486l19.89-19.89c4.973-4.973 4.973-12.431 0-17.404-4.972-4.973-14.917-4.973-19.89 0zM407.75 303.326c-7.459 0-12.431 4.973-12.431 12.431v24.863c0 7.459 4.973 12.431 12.431 12.431s12.431-4.973 12.431-12.431v-24.863c.001-7.458-4.972-12.431-12.431-12.431zM407.75 208.848c-4.973 4.973-4.973 12.431 0 17.404 2.486 2.486 4.973 2.486 9.945 2.486s7.459 0 9.945-2.486l14.918-14.918c4.973-4.973 4.973-12.431 0-17.404-4.973-4.973-12.431-4.973-17.404 0l-17.404 14.918zM251.115 407.75c-4.973-4.973-12.431-4.973-17.404 0-4.973 4.973-4.973 12.431 0 17.404l9.945 12.431c2.486 2.486 4.973 2.486 9.945 2.486 4.973 0 7.459 0 9.945-2.486 4.973-4.973 4.973-12.431 0-17.404l-12.431-12.431zM305.813 101.938c2.486 2.486 4.973 2.486 9.945 2.486s7.459 0 9.945-2.486c4.973-4.973 4.973-12.431 0-17.404l-22.377-22.377c-4.973-4.973-12.431-4.973-17.404 0s-4.973 12.431 0 17.404l19.891 22.377zM405.264 268.519c2.486-2.486 4.973-4.973 4.973-7.459s0-7.459-4.973-9.945c-4.973-4.973-12.431-4.973-17.404 0-2.486 2.486-2.486 4.973-2.486 9.945 0 2.486 0 7.459 2.486 7.459 2.486 2.486 4.973 4.973 9.945 4.973 0-.001 4.973-2.487 7.459-4.973z"></path>
		</symbol>
	
		<symbol id="icon-switcher-add" viewBox="0 0 36 36">
			<path d="M18 36C8.073 36 0 27.925 0 18 0 8.073 8.074 0 18 0c9.925 0 17.999 8.074 17.999 18 .001 9.925-8.074 18-18 18zm0-33.944C9.207 2.056 2.055 9.21 2.055 18S9.208 33.941 18 33.941c8.79 0 15.942-7.151 15.942-15.942C33.941 9.21 26.79 2.056 18 2.056z"></path><path d="M25.096 19.028H10.902a1.028 1.028 0 1 1 0-2.058h14.194a1.029 1.029 0 0 1 0 2.058z"></path><path d="M18 26.125c-.569 0-1.03-.46-1.03-1.029V10.902a1.03 1.03 0 0 1 2.058 0v14.194c0 .57-.46 1.029-1.028 1.029z"></path>
		</symbol>
	
		<symbol id="icon-switcher-del" viewBox="0 0 36 36">
			<path d="M18 0C8.058 0 0 8.058 0 18s8.058 18 18 18 18-8.06 18-18S27.942 0 18 0zm0 33.75C9.301 33.75 2.25 26.698 2.25 18 2.25 9.301 9.301 2.25 18 2.25c8.698 0 15.75 7.051 15.75 15.75 0 8.698-7.052 15.75-15.75 15.75zm6.75-16.875h-13.5a1.125 1.125 0 0 0 0 2.25h13.5a1.125 1.125 0 0 0 0-2.25z"></path>
		</symbol>
	
		<symbol id="icon-test-rew-photo" viewBox="0 0 68 68">
			<path d="M48.29 41.768a1.478 1.478 0 0 0-2.087.116c-3.084 3.446-7.53 5.42-12.203 5.42-4.671 0-9.12-1.974-12.203-5.42a1.478 1.478 0 1 0-2.203 1.972C23.238 47.926 28.49 50.26 34 50.26c5.512 0 10.763-2.336 14.406-6.405a1.48 1.48 0 0 0-.116-2.088z"></path><path d="M34 0C15.253 0 0 15.253 0 34s15.253 34 34 34 34-15.253 34-34S52.747 0 34 0zm0 65.043C16.882 65.043 2.957 51.118 2.957 34S16.882 2.957 34 2.957 65.043 16.882 65.043 34 51.118 65.043 34 65.043z"></path><path d="M45.826 23.652c-4.075 0-7.391 3.316-7.391 7.391a1.479 1.479 0 0 0 2.956 0 4.44 4.44 0 0 1 4.435-4.434 4.44 4.44 0 0 1 4.435 4.434 1.479 1.479 0 0 0 2.956 0c0-4.075-3.315-7.39-7.39-7.39zM26.609 31.043a1.479 1.479 0 0 0 2.956 0c0-4.075-3.316-7.39-7.391-7.39-4.076 0-7.391 3.315-7.391 7.39a1.479 1.479 0 0 0 2.956 0 4.44 4.44 0 0 1 4.435-4.434 4.44 4.44 0 0 1 4.435 4.434z"></path>
		</symbol>
	
</svg>
