<svg width="67" height="67" viewBox="0 0 67 67" fill="none" xmlns="http://www.w3.org/2000/svg">
<path d="M57.055 55.1913C56.8637 53.8 56.0577 52.6103 54.8435 51.9273L43.2535 45.4081C41.4795 44.4101 39.2351 44.7184 37.7957 46.1577L33.7258 50.2276C32.8921 51.0613 31.5574 51.1652 30.6207 50.4693C27.8088 48.38 25.0606 45.9982 22.4523 43.3899C19.8442 40.7818 17.4624 38.0335 15.373 35.2216C14.677 34.285 14.7809 32.9501 15.6147 32.1164L19.6845 28.0466C21.124 26.6071 21.4323 24.3628 20.4342 22.5887L13.9151 10.9988C13.2321 9.78454 12.0425 8.97858 10.651 8.7874C9.19313 8.58718 7.7491 9.08039 6.68888 10.141L2.39631 14.4336C-0.636218 17.4661 -0.795604 22.8952 1.94733 29.7209C4.57119 36.2505 9.56412 43.3944 16.0061 49.8363C22.4481 56.2785 29.5918 61.2713 36.1215 63.895C39.3547 65.1943 42.2742 65.8424 44.7744 65.8424C47.5523 65.8424 49.8126 65.0422 51.4087 63.4461L55.7012 59.1535C56.7617 58.0931 57.2551 56.649 57.055 55.1913ZM54.1664 57.6188L53.4162 58.3687L43.5355 52.9793C43.0092 52.6919 42.3501 52.8861 42.0631 53.4124C41.776 53.9386 41.9699 54.5979 42.4963 54.8849L51.8164 59.9686L49.8737 61.9114C47.5294 64.2556 42.8118 64.2444 36.9306 61.8813C30.6665 59.3639 23.7804 54.5414 17.5406 48.3016C11.3013 42.0619 6.47846 35.1757 3.96126 28.9116C1.59794 23.0301 1.58695 18.3126 3.93116 15.9684L5.8735 14.0257L6.91252 15.9305C7.1096 16.2916 7.48189 16.4963 7.86622 16.4963C8.04171 16.4963 8.21993 16.4536 8.38482 16.3636C8.911 16.0765 9.10507 15.4172 8.81796 14.8911L7.47365 12.4259L8.2236 11.676C8.71668 11.1832 9.35684 10.915 10.0194 10.915C10.131 10.915 10.2434 10.9228 10.3557 10.9381C11.0682 11.0359 11.6762 11.4459 12.0232 12.0632L18.5424 23.6531C19.065 24.5825 18.9037 25.758 18.1497 26.5119L16.2131 28.4486L11.1309 19.1312C10.8439 18.605 10.1847 18.4109 9.65847 18.698C9.13228 18.985 8.93822 19.6443 9.22533 20.1704L14.6133 30.0482L14.0799 30.5816C12.4908 32.1707 12.2978 34.7221 13.6308 36.5162C15.7832 39.4127 18.2347 42.2419 20.9175 44.9248C23.6003 47.6077 26.4295 50.0593 29.3261 52.2114C31.12 53.5446 33.6712 53.3515 35.2607 51.7623L35.794 51.2289L38.2586 52.5732C38.4238 52.6634 38.6018 52.7059 38.7772 52.7059C39.1616 52.7059 39.5339 52.5013 39.7309 52.1401C40.018 51.6139 39.8241 50.9546 39.2978 50.6677L37.3937 49.6289L39.3302 47.6923C40.0841 46.9385 41.2598 46.777 42.1893 47.2996L53.7792 53.8188C54.3963 54.1659 54.8064 54.7738 54.9043 55.4863C55.0114 56.2656 54.7424 57.0427 54.1664 57.6188Z" fill="#133350"/>
<path d="M52.0228 28.9413H50.7928V19.6078C50.7928 19.0084 50.307 18.5224 49.7075 18.5224C49.1082 18.5224 48.6221 19.0083 48.6221 19.6078V28.9413H42.9569L44.9786 19.8432C45.1086 19.2581 44.7397 18.6783 44.1545 18.5483C43.5692 18.4181 42.9897 18.7873 42.8596 19.3724L40.5443 29.7912C40.4729 30.1126 40.5511 30.4489 40.7573 30.7058C40.9632 30.9626 41.2745 31.112 41.6038 31.112H48.622V34.6572C48.622 35.2566 49.1079 35.7426 49.7074 35.7426C50.3067 35.7426 50.7927 35.2567 50.7927 34.6572V31.1119H52.0227C52.622 31.1119 53.108 30.626 53.108 30.0265C53.108 29.4272 52.6221 28.9413 52.0228 28.9413Z" fill="#133350"/>
<path d="M38.131 33.5719H30.1435C30.6157 32.3286 31.9517 31.538 33.8788 30.4864C36.2569 29.1887 39.2164 27.5736 39.2164 23.9076C39.2164 20.9382 36.6522 18.5225 33.5005 18.5225C30.3487 18.5225 27.7845 20.9381 27.7845 23.9076C27.7845 24.5069 28.2704 24.9929 28.8699 24.9929C29.4692 24.9929 29.9552 24.507 29.9552 23.9076C29.9552 22.1351 31.5457 20.693 33.5005 20.693C35.4552 20.693 37.0457 22.135 37.0457 23.9076C37.0456 26.1254 35.4564 27.1526 32.8388 28.5809C30.4698 29.8738 27.7844 31.3393 27.7844 34.6571C27.7844 35.2565 28.2703 35.7425 28.8697 35.7425H38.1309C38.7302 35.7425 39.2163 35.2566 39.2163 34.6571C39.2163 34.0577 38.7304 33.5719 38.131 33.5719Z" fill="#133350"/>
<path d="M61.0712 46.3271L58.9575 46.7498C64.0937 41.7615 66.9999 34.9389 66.9999 27.7113C66.9999 13.0697 55.088 1.15771 40.4463 1.15771C31.8172 1.15771 23.6956 5.3753 18.7211 12.4399C18.376 12.9299 18.4935 13.607 18.9836 13.9522C19.4735 14.2973 20.1506 14.1798 20.4958 13.6897C25.0645 7.2017 32.5225 3.32828 40.4465 3.32828C53.8912 3.32828 64.8294 14.2664 64.8294 27.7113C64.8294 34.4451 62.0803 40.7949 57.234 45.3925L57.7179 42.9735C57.8354 42.3857 57.4542 41.8139 56.8664 41.6964C56.2787 41.5788 55.7069 41.9601 55.5893 42.5479L54.4318 48.3362C54.3606 48.692 54.4719 49.0599 54.7285 49.3165C54.934 49.5219 55.211 49.6343 55.4959 49.6343C55.5667 49.6343 55.6379 49.6274 55.7088 49.6133L61.4971 48.4556C62.0849 48.3379 62.4661 47.7662 62.3486 47.1785C62.2306 46.5908 61.6587 46.2099 61.0712 46.3271Z" fill="#133350"/>
<path d="M40.4463 5.78809C39.847 5.78809 39.361 6.27397 39.361 6.87343V9.18872C39.361 9.78806 39.8469 10.2741 40.4463 10.2741C41.0457 10.2741 41.5317 9.78819 41.5317 9.18872V6.87343C41.5316 6.2741 41.0458 5.78809 40.4463 5.78809Z" fill="#133350"/>
<path d="M61.284 26.626H58.9687C58.3693 26.626 57.8833 27.1119 57.8833 27.7113C57.8833 28.3107 58.3692 28.7967 58.9687 28.7967H61.284C61.8833 28.7967 62.3693 28.3108 62.3693 27.7113C62.3693 27.1119 61.8833 26.626 61.284 26.626Z" fill="#133350"/>
<path d="M24.9482 17.5102L22.9431 16.3527C22.4239 16.0529 21.7603 16.2308 21.4606 16.7498C21.161 17.2689 21.3388 17.9327 21.8578 18.2323L23.8628 19.3899C24.0337 19.4886 24.2203 19.5354 24.4044 19.5354C24.7795 19.5354 25.1443 19.3407 25.3453 18.9926C25.645 18.4736 25.4672 17.8099 24.9482 17.5102Z" fill="#133350"/>
<path d="M59.0349 37.1901L57.0299 36.0323C56.5107 35.7325 55.847 35.9105 55.5473 36.4295C55.2477 36.9485 55.4254 37.6123 55.9445 37.912L57.9495 39.0696C58.1204 39.1682 58.307 39.2151 58.4912 39.2151C58.8662 39.2151 59.231 39.0204 59.432 38.6723C59.7318 38.1534 59.554 37.4897 59.0349 37.1901Z" fill="#133350"/>
<path d="M51.4079 8.72546C50.8888 8.42566 50.225 8.60363 49.9254 9.12262L48.7678 11.1276C48.4681 11.6468 48.646 12.3105 49.165 12.6101C49.3359 12.7088 49.5223 12.7557 49.7066 12.7557C50.0816 12.7557 50.4464 12.5609 50.6474 12.2129L51.8052 10.2078C52.1048 9.68898 51.927 9.02513 51.4079 8.72546Z" fill="#133350"/>
<path d="M31.7277 42.8121C31.2086 42.5123 30.545 42.6903 30.2452 43.2093L29.0876 45.2143C28.788 45.7334 28.9658 46.3972 29.4848 46.6968C29.6557 46.7955 29.8423 46.8423 30.0264 46.8423C30.4015 46.8423 30.7663 46.6476 30.9673 46.2995L32.125 44.2945C32.4247 43.7755 32.2468 43.1118 31.7277 42.8121Z" fill="#133350"/>
<path d="M59.4322 16.7498C59.1325 16.2307 58.4685 16.0529 57.9497 16.3527L55.9446 17.5104C55.4255 17.8101 55.2477 18.4738 55.5475 18.9929C55.7485 19.3411 56.1133 19.5357 56.4884 19.5357C56.6725 19.5357 56.8591 19.4889 57.03 19.3902L59.035 18.2326C59.554 17.9327 59.7318 17.2688 59.4322 16.7498Z" fill="#133350"/>
<path d="M25.3453 36.4298C25.0457 35.9107 24.3818 35.7327 23.8628 36.0327L21.8578 37.1904C21.3387 37.4901 21.1609 38.1538 21.4607 38.6729C21.6617 39.0211 22.0265 39.2157 22.4015 39.2157C22.5857 39.2157 22.7723 39.1688 22.9432 39.0702L24.9482 37.9126C25.4672 37.6127 25.645 36.9488 25.3453 36.4298Z" fill="#133350"/>
<path d="M32.125 11.1278L30.9674 9.12274C30.6677 8.60349 30.0039 8.42565 29.4849 8.72558C28.9658 9.02525 28.788 9.6891 29.0878 10.2081L30.2455 12.2131C30.4466 12.5613 30.8114 12.7559 31.1863 12.7559C31.3705 12.7559 31.5571 12.7091 31.728 12.6104C32.2468 12.3106 32.4247 11.6467 32.125 11.1278Z" fill="#133350"/>
<path d="M51.805 45.2143L50.6474 43.2093C50.3478 42.6902 49.6839 42.5124 49.1649 42.8122C48.6458 43.1118 48.468 43.7755 48.7678 44.2947L49.9254 46.2997C50.1264 46.6479 50.4912 46.8425 50.8662 46.8425C51.0504 46.8425 51.237 46.7957 51.4079 46.697C51.9269 46.3972 52.1047 45.7335 51.805 45.2143Z" fill="#133350"/>
</svg>
