<svg width="101" height="100" viewBox="0 0 101 100" fill="none" xmlns="http://www.w3.org/2000/svg">
<path d="M99.3574 47.5741C98.3073 46.335 96.875 45.5297 95.2329 45.2288L94.4616 34.8643C95.2225 34.8571 95.8713 34.3145 96.0039 33.5709L96.3013 31.9008C96.6201 30.1106 96.1755 28.3434 95.0812 27.0526C93.9884 25.7631 92.3884 25.0528 90.5757 25.0528H78.9658L79.531 21.8799C79.6914 20.9788 79.459 20.079 78.8936 19.4118C78.3338 18.7512 77.4921 18.3723 76.5842 18.3723H19.4354C17.7454 18.3723 16.1898 19.6741 15.8937 21.3364L10.8376 49.7284C10.6861 50.5799 11.2603 51.392 12.1204 51.542C12.2131 51.5583 12.3054 51.5661 12.3968 51.5661C13.1497 51.5661 13.8171 51.0315 13.9522 50.2719L19.0085 21.8799C19.0419 21.693 19.2849 21.5036 19.4352 21.5036L76.3862 21.5038L71.3597 49.7284C71.208 50.5799 71.7822 51.392 72.6425 51.542C73.5016 51.6918 74.3228 51.1235 74.4743 50.2719L74.8388 48.2252H93.7499C93.7505 48.2252 93.7513 48.2252 93.7521 48.2252C93.7529 48.2252 93.7536 48.2252 93.7542 48.2252C95.0613 48.2254 96.1907 48.7088 96.9345 49.5864C97.4465 50.1905 97.7451 50.9424 97.8169 51.7743H92.5639C91.7964 51.7743 91.1399 52.3198 91.0065 53.0682L90.4118 56.4085C90.1721 57.7542 90.5106 59.0875 91.3403 60.0667C92.1586 61.0325 93.4007 61.5862 94.7479 61.5862H96.2368L95.0098 68.4754H90.8347C90.5599 67.0975 89.9585 65.8301 89.0469 64.7549C87.4295 62.8461 85.0493 61.7952 82.3454 61.7952C78.0097 61.7952 73.8267 64.6038 71.8684 68.4756H71.2326L73.2848 56.9524C73.4363 56.1008 72.8622 55.2887 72.002 55.1387C71.1423 54.9883 70.3216 55.5571 70.1701 56.4088L68.0211 68.4758H38.7465C38.4717 67.0979 37.8703 65.8307 36.9587 64.7553C35.3411 62.8465 32.9611 61.7956 30.257 61.7956C25.9213 61.7956 21.7383 64.6041 19.78 68.476L10.7101 68.4758L11.3422 64.927H18.4495C19.3228 64.927 20.0309 64.226 20.0309 63.3612C20.0309 62.4965 19.323 61.7954 18.4495 61.7954H1.58148C0.708184 61.7954 0 62.4963 0 63.3612C0 64.2258 0.707986 64.927 1.58148 64.927H8.13089L7.56573 68.0999C7.40535 69.001 7.63773 69.9008 8.20309 70.568C8.76293 71.2286 9.60467 71.6075 10.5125 71.6075H18.7531C18.3244 74.2635 18.9687 76.7657 20.5813 78.6682C22.1989 80.577 24.5789 81.628 27.283 81.628C32.6652 81.628 37.8144 77.3016 38.7615 71.9834C38.7838 71.8575 38.8014 71.7323 38.8191 71.6073H70.8414C70.4126 74.2631 71.0569 76.7653 72.6697 78.668C74.2873 80.5768 76.6673 81.6278 79.3714 81.6278C84.7536 81.6278 89.9028 77.3014 90.8499 71.9832C90.8722 71.8573 90.8897 71.7321 90.9075 71.6071H96.3372C97.1048 71.6071 97.7613 71.0616 97.8946 70.3131L100.869 53.612C101.273 51.345 100.736 49.2006 99.3574 47.5741ZM75.3969 45.0944L77.2186 34.8649H91.2908L92.052 45.0944H75.3969ZM93.1865 31.3573L93.1194 31.7334H77.7761L78.4082 28.1844H90.5757C91.4372 28.1844 92.1769 28.4973 92.6582 29.0655C93.1573 29.6542 93.3451 30.4678 93.1865 31.3573ZM35.6469 71.4401C34.9541 75.3313 31.2019 78.4967 27.283 78.4967C25.5301 78.4967 24.0104 77.8428 23.0041 76.6557C21.9689 75.434 21.5744 73.7751 21.8933 71.984C22.5863 68.0928 26.3383 64.9274 30.2572 64.9274C32.0101 64.9274 33.5298 65.5813 34.5361 66.7686C35.5713 67.9899 35.9659 69.6491 35.6469 71.4401ZM87.7351 71.4401C87.0421 75.3313 83.2901 78.4967 79.3712 78.4967C77.6183 78.4967 76.0986 77.8428 75.0923 76.6555C74.0571 75.4338 73.6625 73.7749 73.9815 71.9838C74.6743 68.0926 78.4265 64.9272 82.3454 64.9272C84.0981 64.9272 85.618 65.5811 86.6243 66.7684C87.6595 67.9899 88.0541 69.6491 87.7351 71.4401ZM96.7945 58.4555H94.7479V58.4553C94.3259 58.4553 93.9854 58.3167 93.7631 58.0545C93.5325 57.7823 93.4483 57.3911 93.5264 56.953L93.8909 54.9067H97.4265L96.7945 58.4555Z" fill="#133350"/>
<path d="M31.3771 69.5155C30.8172 68.855 29.9755 68.4761 29.0675 68.4761C27.3775 68.4761 25.8219 69.7778 25.5258 71.4401C25.3654 72.3413 25.5978 73.2411 26.1632 73.9083C26.723 74.5689 27.5647 74.9478 28.4725 74.9478C30.1625 74.9478 31.7182 73.6458 32.0143 71.9839C32.1748 71.0825 31.9426 70.1829 31.3771 69.5155Z" fill="#133350"/>
<path d="M83.4653 69.5155C82.9052 68.855 82.0635 68.4761 81.1559 68.4761C79.4659 68.4761 77.9102 69.7778 77.6143 71.4399C77.454 72.3413 77.686 73.2409 78.2515 73.9083C78.8114 74.5689 79.6531 74.9478 80.5609 74.9478C82.2509 74.9478 83.8065 73.6458 84.1026 71.9839C84.2632 71.0825 84.0308 70.1829 83.4653 69.5155Z" fill="#133350"/>
<path d="M63.7906 61.7954H43.7518C42.8785 61.7954 42.1703 62.4964 42.1703 63.3612C42.1703 64.2259 42.8783 64.9271 43.7518 64.9271H63.7906C64.6639 64.9271 65.3721 64.2261 65.3721 63.3612C65.3719 62.4964 64.6639 61.7954 63.7906 61.7954Z" fill="#133350"/>
<path d="M35.3176 55.115H6.14482C5.27152 55.115 4.56334 55.816 4.56334 56.6808C4.56334 57.5455 5.27113 58.2466 6.14482 58.2466H35.3176C36.1909 58.2466 36.8991 57.5457 36.8991 56.6808C36.8991 55.816 36.1911 55.115 35.3176 55.115Z" fill="#133350"/>
<path d="M65.5173 48.8155L59.6624 43.8052C59.0016 43.2399 58.003 43.3116 57.4317 43.9659C56.8604 44.6202 56.9332 45.6089 57.5941 46.1745L60.2351 48.4347H20.1363C19.263 48.4347 18.5548 49.1356 18.5548 50.0005C18.5548 50.8651 19.2628 51.5663 20.1363 51.5663H59.2322L55.9704 53.7058C55.2421 54.1831 55.043 55.1548 55.5254 55.8757C55.8295 56.3306 56.3326 56.5769 56.8451 56.5769C57.1449 56.5769 57.4483 56.4925 57.717 56.3161L65.3565 51.3058C65.7692 51.0355 66.0298 50.5894 66.0613 50.1003C66.0929 49.611 65.8917 49.1356 65.5173 48.8155Z" fill="#133350"/>
</svg>
