<svg width="66" height="66" viewBox="0 0 66 66" fill="none" xmlns="http://www.w3.org/2000/svg">
<g clip-path="url(#clip0)">
<path d="M55.4213 16.8136H38.4574L50.2064 12.1141C50.7453 11.8986 51.0074 11.2869 50.7919 10.7479C50.5763 10.209 49.9649 9.94678 49.4257 10.1624L39.4608 14.1484C42.3043 12.3631 45.3016 10.2904 46.3697 8.88975C47.2663 7.71412 47.6514 6.2598 47.4542 4.79439C47.257 3.32898 46.5007 2.02831 45.3252 1.13177C42.8983 -0.719071 39.418 -0.250495 37.5672 2.17643C36.6538 3.37397 35.4348 6.15281 33.9442 10.436C33.5992 11.4271 33.2782 12.389 33.0002 13.2423C32.7221 12.389 32.4013 11.4271 32.0562 10.436C30.5655 6.15293 29.3466 3.37397 28.4331 2.17643C26.5824 -0.250495 23.1022 -0.719071 20.6752 1.13177C19.4995 2.02831 18.7434 3.32911 18.5461 4.79439C18.3488 6.2598 18.734 7.71399 19.6305 8.88975C20.6988 10.2903 23.696 12.3631 26.5395 14.1482L16.5747 10.1623C16.0356 9.94665 15.424 10.2088 15.2085 10.7478C14.9928 11.2868 15.255 11.8984 15.794 12.114L27.5429 16.8135H10.5791C10.5788 16.8135 10.5784 16.8135 10.5779 16.8135C8.7624 16.8139 7.28552 18.2909 7.28552 20.1067V62.7071C7.28552 64.523 8.76279 66.0002 10.5787 66.0002H55.4211C57.2371 66.0002 58.7143 64.523 58.7143 62.7071V20.1067H58.7144C58.7144 18.2909 57.2372 16.8136 55.4213 16.8136ZM39.2384 3.45118C39.9132 2.56637 40.9371 2.10127 41.9723 2.10127C42.6982 2.10127 43.4299 2.33008 44.0503 2.8033C44.7795 3.35953 45.2485 4.16623 45.3709 5.07502C45.4933 5.98394 45.2544 6.8859 44.6983 7.61525C43.4586 9.24102 38.306 12.4541 34.7986 14.5059C36.0236 10.7015 37.9922 5.0852 39.2384 3.45118ZM21.3018 7.61512C20.7457 6.8859 20.5068 5.98381 20.6291 5.07489C20.7516 4.16597 21.2206 3.35927 21.9498 2.80317C22.5704 2.32995 23.3016 2.10115 24.0278 2.10115C25.0629 2.10115 26.0869 2.56637 26.7617 3.45105C28.0079 5.0852 29.9765 10.7017 31.2018 14.5059C27.6945 12.4545 22.5423 9.24166 21.3018 7.61512ZM28.5859 18.9156V24.2959L23.2056 18.9156H28.5859ZM20.233 18.9156L28.5858 27.2683V34.3853L13.1161 18.9156H20.233ZM9.3876 20.1065C9.38773 19.5806 9.73075 19.1341 10.2046 18.9767L28.5858 37.3578V44.4748L9.3876 25.2766V20.1065ZM10.5788 63.8983C9.92205 63.8982 9.38773 63.3638 9.38773 62.7071V58.5181L14.768 63.8984H10.5788V63.8983ZM17.7405 63.8981L9.38773 55.5453V48.4283L24.8575 63.8981H17.7405ZM28.586 63.8984H27.83V63.8981L9.38773 45.4559V38.339L13.1969 42.1481C13.402 42.3535 13.6712 42.456 13.9401 42.456C14.209 42.456 14.478 42.3534 14.6832 42.1481C15.0936 41.7377 15.0936 41.0723 14.6832 40.6618L9.38773 35.3664V28.2494L28.5859 47.4476V54.5645L18.0506 44.0293C17.6402 43.6188 16.9746 43.6188 16.5643 44.0293C16.1539 44.4397 16.1539 45.1051 16.5643 45.5156L28.586 57.5373V63.8984ZM35.3122 63.8981H30.6879V18.9156H35.3122V63.8981ZM37.4141 18.9155H40.4122L43.4693 21.9726C43.6744 22.1779 43.9436 22.2804 44.2125 22.2804C44.4814 22.2804 44.7504 22.1778 44.9556 21.9726C45.3661 21.5622 45.3661 20.8967 44.9556 20.4863L43.3848 18.9155H50.5017L56.6124 25.0261V32.1431L48.317 23.8477C47.9065 23.4372 47.241 23.4372 46.8307 23.8477C46.4204 24.2584 46.4204 24.9238 46.8308 25.3342L56.6125 35.1159V42.2328L37.4141 23.0345V18.9155ZM37.4143 63.8981V56.2758L45.0367 63.8981H37.4143ZM48.0091 63.8981L37.4143 53.3032V46.1863L55.1262 63.8981H48.0091ZM56.6125 62.412L37.4143 43.2138V36.0969L56.6125 55.2951V62.412ZM56.6125 52.3223L37.4143 33.1242V26.0072L56.6125 45.2054V52.3223ZM56.6125 22.0537L53.4744 18.9156H55.4214C56.0782 18.9156 56.6125 19.4499 56.6125 20.1067V22.0537Z" fill="#133350"/>
</g>
<defs>
<clipPath id="clip0">
<rect width="66" height="66" fill="white"/>
</clipPath>
</defs>
</svg>
