<svg width="24" height="24" viewBox="0 0 24 24" fill="none" xmlns="http://www.w3.org/2000/svg">
<g clip-path="url(#clip0)">
<path d="M12 23.999C18.6274 23.999 24 18.6264 24 11.999C24 5.37161 18.6274 -0.000976562 12 -0.000976562C5.37258 -0.000976562 0 5.37161 0 11.999C0 18.6264 5.37258 23.999 12 23.999Z" fill="#DC4E41"/>
<path d="M4.1779 12.5377C4.13534 14.6023 5.55742 16.5727 7.51364 17.2153C9.35627 17.8343 11.6218 17.3712 12.8479 15.7932C13.7432 14.6875 13.9466 13.2134 13.8497 11.8362C12.2717 11.8221 10.6936 11.8268 9.11797 11.8292C9.11541 12.3913 9.11797 12.9514 9.12033 13.5135C10.0652 13.5396 11.0102 13.5276 11.9551 13.5467C11.7166 14.364 11.1732 15.1247 10.3486 15.4199C8.75646 16.1215 6.72495 15.2049 6.22397 13.5347C5.61924 11.9353 6.60922 10.0052 8.24372 9.5399C9.25723 9.18331 10.3013 9.58482 11.1685 10.1117C11.6079 9.70055 12.019 9.26117 12.4229 8.81709C11.4376 7.99268 10.1715 7.48721 8.86984 7.59823C6.31595 7.6286 4.081 9.98633 4.1779 12.5377Z" fill="#DC4E41"/>
<path d="M16.9209 10.4106C16.9162 10.8808 16.9112 11.3534 16.9089 11.8233C16.4364 11.828 15.9664 11.8304 15.4962 11.8327C15.4962 12.3029 15.4962 12.7705 15.4962 13.2407C15.9664 13.243 16.4389 13.2454 16.9089 13.2503C16.9136 13.7205 16.9136 14.1905 16.9183 14.663C17.3861 14.663 17.8563 14.6606 18.3263 14.663C18.3288 14.1905 18.331 13.7205 18.3359 13.248C18.8059 13.2456 19.2784 13.2433 19.7486 13.2409C19.7486 12.7707 19.7486 12.3031 19.7486 11.8329C19.2786 11.8306 18.8061 11.8282 18.3359 11.8235C18.3333 11.3534 18.3288 10.8808 18.3263 10.4109C17.8563 10.4106 17.3885 10.4106 16.9209 10.4106Z" fill="#DC4E41"/>
<path d="M4.1779 12.5369C4.081 9.98557 6.31574 7.62784 8.86962 7.59725C10.1713 7.48623 11.4376 7.9917 12.4227 8.81612C12.0186 9.26041 11.6075 9.69957 11.1683 10.1107C10.3011 9.58384 9.25702 9.18233 8.2435 9.53892C6.60879 10.0044 5.61881 11.9345 6.22375 13.5337C6.72473 15.2039 8.75625 16.1205 10.3484 15.4189C11.1728 15.1237 11.7164 14.3631 11.9549 13.5457C11.01 13.5269 10.065 13.5386 9.12011 13.5125C9.11776 12.9504 9.11541 12.3904 9.11776 11.8282C10.6934 11.8258 12.2715 11.8211 13.8495 11.8353C13.9464 13.2126 13.7432 14.6867 12.8477 15.7922C11.6216 17.3702 9.35627 17.8333 7.51342 17.2143C5.55763 16.5719 4.13534 14.6016 4.1779 12.5369Z" fill="white"/>
<path d="M16.9209 10.4106C17.3887 10.4106 17.8563 10.4106 18.3263 10.4106C18.3288 10.8808 18.3333 11.3534 18.3359 11.8233C18.8059 11.828 19.2784 11.8304 19.7486 11.8327C19.7486 12.3029 19.7486 12.7705 19.7486 13.2407C19.2786 13.243 18.8061 13.2454 18.3359 13.2478C18.3312 13.7203 18.3288 14.1902 18.3263 14.6628C17.8563 14.6604 17.3859 14.6628 16.9183 14.6628C16.9138 14.1902 16.9138 13.7203 16.9089 13.2501C16.4389 13.2452 15.9664 13.243 15.4962 13.2405C15.4962 12.7703 15.4962 12.3027 15.4962 11.8325C15.9664 11.8302 16.4366 11.8278 16.9089 11.8231C16.9112 11.3534 16.9159 10.8808 16.9209 10.4106Z" fill="white"/>
</g>
<defs>
<clipPath id="clip0">
<rect width="24" height="24" fill="white"/>
</clipPath>
</defs>
</svg>
