<svg width="84" height="84" viewBox="0 0 84 84" fill="none" xmlns="http://www.w3.org/2000/svg">
<g clip-path="url(#clip0)">
<path d="M63.8624 55.5677C61.1182 52.8583 57.6922 52.8583 54.9653 55.5677C52.8853 57.6303 50.8052 59.6929 48.7601 61.7904C48.2007 62.3672 47.7288 62.4896 47.0471 62.105C45.7011 61.3709 44.2678 60.7766 42.9743 59.9725C36.9439 56.1795 31.8922 51.3026 27.4175 45.814C25.1976 43.0872 23.2224 40.1681 21.8415 36.882C21.5618 36.2177 21.6142 35.7808 22.1561 35.2389C24.2362 33.2287 26.2638 31.1661 28.3089 29.1035C31.1581 26.2369 31.1581 22.8808 28.2914 19.9967C26.6658 18.3536 25.0402 16.7455 23.4146 15.1024C21.7366 13.4243 20.076 11.7288 18.3805 10.0682C15.6362 7.39386 12.2102 7.39386 9.48339 10.0857C7.38584 12.1483 5.37568 14.2633 3.24317 16.291C1.26798 18.1613 0.271637 20.4511 0.061882 23.1255C-0.270231 27.4779 0.796026 31.5856 2.29927 35.5885C5.37568 43.8738 10.0602 51.2327 15.7411 57.9799C23.4146 67.1042 32.574 74.3233 43.289 79.5322C48.1133 81.8745 53.1125 83.6749 58.5486 83.972C62.2893 84.1818 65.5405 83.2379 68.145 80.3188C69.9279 78.3261 71.938 76.5082 73.8258 74.603C76.6226 71.7713 76.64 68.3453 73.8608 65.5485C70.5397 62.2099 67.2011 58.8888 63.8624 55.5677Z" fill="#91DC5A"/>
<path d="M60.5239 41.6365L66.9739 40.5352C65.96 34.6097 63.1633 29.2434 58.9158 24.9784C54.4235 20.4861 48.7426 17.6544 42.4849 16.7805L41.576 23.2654C46.4178 23.9471 50.8227 26.132 54.3011 29.6105C57.5873 32.8967 59.7373 37.0568 60.5239 41.6365Z" fill="#91DC5A"/>
<path d="M70.6096 13.5991C63.1633 6.15282 53.7418 1.45081 43.3414 0L42.4325 6.48493C51.417 7.74347 59.5625 11.8162 65.995 18.2312C72.0954 24.3316 76.0982 32.0401 77.549 40.5177L83.999 39.4165C82.3035 29.593 77.6714 20.6784 70.6096 13.5991Z" fill="#91DC5A"/>
</g>
<defs>
<clipPath id="clip0">
<rect width="84" height="84" fill="white"/>
</clipPath>
</defs>
</svg>
