<svg width="80" height="86" viewBox="0 0 80 86" fill="none" xmlns="http://www.w3.org/2000/svg">
<g filter="url(#filter0_d)">
<path d="M69.657 58.4472L68.5991 13.1558C68.5029 9.04491 67.1705 6.64604 64.8467 6.40082C63.5848 6.26788 62.2827 6.29508 61.0238 6.32076C60.4372 6.33284 59.8324 6.34593 59.2503 6.34039L18.2808 6.00151C15.9313 5.98288 13.2912 6.11733 11.6975 7.97841C10.2942 9.61693 10.3334 12.0138 10.3591 13.5999L11.1467 62.0883C11.1603 62.9227 11.1809 64.1841 11.9659 65.0743C12.5807 65.7707 13.4388 66.0265 14.3144 66.1237L14.176 69.8761C14.1634 70.22 14.1422 70.795 14.4861 71.2608C14.9766 71.925 15.8502 71.9361 16.2702 71.9411L20.8846 71.9985C20.934 71.9995 20.9889 72 21.0488 72C21.6409 72 22.716 71.933 23.2291 71.0634C23.492 70.6178 23.4935 70.1258 23.4945 69.7663L23.505 66.2803C25.778 66.2974 28.0535 66.307 30.331 66.307C38.7835 66.307 47.2575 66.1871 55.6828 65.952L55.646 71.0876C55.6435 71.436 55.9184 71.7231 56.2664 71.7361L61.9876 71.9486C62.0707 71.9517 62.1643 71.9552 62.266 71.9552C62.6669 71.9552 63.186 71.9008 63.6024 71.5518C64.254 71.0055 64.2344 70.1243 64.2243 69.651L64.1327 65.528C66.1393 65.1896 68.0447 64.4167 69.0079 62.615C69.723 61.2781 69.6862 59.7086 69.657 58.4472ZM12.6769 8.8168C13.8421 7.45574 15.9585 7.28906 17.9248 7.28906C18.0406 7.28906 18.1559 7.28957 18.2702 7.29057L59.2398 7.62946C59.8385 7.63449 60.4548 7.6219 61.0505 7.60932C62.2696 7.58414 63.5304 7.55846 64.7117 7.68283C66.8659 7.90993 67.2642 11.2283 67.31 13.1855C67.3452 14.6901 67.3805 16.1962 67.4157 17.7033C58.4185 18.2481 49.2425 18.0668 40.3641 17.8896C30.9715 17.7028 21.2658 17.5114 11.7227 18.1766C11.6975 16.6438 11.6729 15.1116 11.6482 13.5788C11.618 11.7373 11.6744 9.98754 12.6769 8.8168ZM22.2054 69.7623C22.2049 69.9858 22.2039 70.2643 22.1188 70.4083C21.9526 70.6903 21.3454 70.7155 20.9012 70.7099L16.2863 70.6525C16.1247 70.6505 15.6332 70.6445 15.5234 70.4954C15.4469 70.3922 15.458 70.0991 15.4645 69.9239L15.602 66.1866C17.803 66.2229 20.008 66.2501 22.216 66.2697L22.2054 69.7623ZM62.7741 70.5639C62.6326 70.6827 62.2595 70.6691 62.0359 70.6606L56.9396 70.4713L56.9723 65.9162C58.4563 65.8724 59.9392 65.8266 61.4196 65.7757C61.8828 65.7596 62.3627 65.7334 62.8471 65.6901L62.9352 69.6797C62.9403 69.8997 62.9519 70.4154 62.7741 70.5639ZM67.8714 62.0073C66.7878 64.0335 63.9796 64.3981 61.3753 64.4872C46.1311 65.0109 30.6689 65.1478 15.4182 64.8946C14.4469 64.8784 13.4549 64.8135 12.9327 64.2218C12.4982 63.7284 12.4493 62.9212 12.4357 62.0672C12.3874 59.0938 12.339 56.1209 12.2907 53.1475C12.1739 45.966 12.0576 38.7845 11.9407 31.603C11.8748 27.5576 11.8093 23.5126 11.7439 19.4672C21.2517 18.8 30.9519 18.9913 40.3384 19.1787C49.2264 19.3554 58.4119 19.5372 67.446 18.9923C67.5416 23.0997 67.6378 27.2121 67.734 31.3261C67.8981 38.357 68.0623 45.3884 68.2264 52.4198C68.2738 54.439 68.3206 56.4582 68.3684 58.4774C68.3956 59.6451 68.4269 60.9689 67.8714 62.0073Z" fill="#FFDA44"/>
<path d="M23.5382 25.4986C24.15 25.7211 24.7759 25.7493 25.3278 25.7745C28.6023 25.9236 31.8985 25.9981 35.1962 25.9981C38.8605 25.9981 42.5267 25.9064 46.1658 25.7221C48.1075 25.624 50.2324 25.49 52.663 25.3123C53.2652 25.2685 54.0145 25.2136 54.6857 24.8782C55.8222 24.3107 56.0644 23.353 55.9118 22.6455C55.7104 21.7114 54.8312 21.0302 53.7738 20.9894C52.3835 20.9355 50.9701 20.932 49.603 20.9289C48.8633 20.9274 48.0979 20.9254 47.3486 20.9159C42.8777 20.8569 38.3524 20.8031 33.8986 20.7557C31.3436 20.7285 28.7892 20.7029 26.2347 20.6792C25.3847 20.6716 24.3263 20.6611 23.3957 21.1309C22.1223 21.7739 21.6847 23.1123 21.9969 24.0343C22.219 24.6894 22.7804 25.2226 23.5382 25.4986ZM23.9768 22.282C24.5322 22.0015 25.2306 21.9662 25.8883 21.9662C26.0011 21.9662 26.1128 21.9672 26.2221 21.9683C28.7766 21.9919 31.3305 22.0176 33.8845 22.0448C38.3373 22.0921 42.8621 22.146 47.3315 22.2049C48.0878 22.2145 48.8567 22.2165 49.6 22.218C50.9555 22.221 52.3568 22.2246 53.724 22.2774C54.2713 22.2986 54.5885 22.6239 54.652 22.9174C54.7179 23.2256 54.5206 23.5197 54.1097 23.7251C53.666 23.9467 53.1086 23.9874 52.5693 24.0267C50.1483 24.2035 48.0324 24.3369 46.1004 24.4346C39.2285 24.7825 32.2591 24.7997 25.3862 24.487C24.9043 24.4653 24.4058 24.4421 23.9793 24.2871C23.5967 24.1481 23.3122 23.8988 23.218 23.6209C23.0523 23.1324 23.4768 22.5342 23.9768 22.282Z" fill="#FFDA44"/>
<path d="M19.9027 16.4716C20.6132 16.7838 21.2945 16.9404 21.9385 16.9404C22.1989 16.9404 22.4536 16.9147 22.7014 16.8634C23.8782 16.6187 24.9306 15.7334 25.4477 14.5536C25.9039 13.5118 25.9593 12.2726 25.6028 11.0646C25.2428 9.84252 24.2941 8.7876 23.1274 8.31125C22.1037 7.89281 21.0196 7.95323 20.0749 8.48044C18.8543 9.16123 17.8533 10.5434 17.5245 12.0022C17.2677 13.1397 17.452 14.2238 18.0431 15.0552C18.454 15.6332 19.0799 16.1096 19.9027 16.4716ZM18.7818 12.2852C19.0301 11.1855 19.802 10.1084 20.7033 9.60585C21.4667 9.17986 22.1777 9.31531 22.64 9.50414C22.788 9.56456 22.9305 9.63909 23.067 9.72469C22.5695 10.4191 22.0986 11.1411 21.6671 11.8758C21.4868 12.1825 21.5896 12.5777 21.8967 12.758C21.9989 12.8179 22.1112 12.8466 22.222 12.8466C22.4431 12.8466 22.6586 12.7328 22.7784 12.5284C23.1561 11.8854 23.5665 11.2524 23.9975 10.6406C24.1581 10.8843 24.284 11.1502 24.3661 11.4287C24.6365 12.3461 24.6012 13.2721 24.2664 14.036C23.9144 14.8401 23.214 15.4399 22.4385 15.601C21.7024 15.7541 20.935 15.5174 20.4214 15.2913C19.8146 15.0244 19.3674 14.6936 19.0935 14.3079C18.6116 13.6301 18.658 12.834 18.7818 12.2852Z" fill="#FFDA44"/>
<path d="M37.2642 16.4716C37.9682 16.7808 38.6641 16.9384 39.3131 16.9384C39.5715 16.9384 39.8222 16.9132 40.0629 16.8634C41.2397 16.6186 42.2921 15.7334 42.8092 14.5531C43.2654 13.5118 43.3208 12.2726 42.9648 11.0646C42.6048 9.84251 41.6561 8.78759 40.4889 8.31074C39.4652 7.8928 38.3811 7.95323 37.437 8.47993C36.2164 9.16122 35.2153 10.5434 34.886 12.0017C34.6297 13.1397 34.8135 14.2238 35.4047 15.0552C35.8156 15.6332 36.4415 16.1096 37.2642 16.4716ZM36.1434 12.2852C36.23 11.902 36.381 11.5223 36.5779 11.1683C36.9777 11.5133 37.3554 11.8859 37.7018 12.2832C37.8292 12.4292 38.008 12.5037 38.1877 12.5037C38.3378 12.5037 38.4889 12.4519 38.6107 12.3451C38.8791 12.111 38.9068 11.7041 38.6731 11.4357C38.2693 10.973 37.8272 10.5399 37.3589 10.1411C37.579 9.9271 37.8166 9.74382 38.0649 9.60585C38.8277 9.17985 39.5392 9.3153 40.0015 9.50413C40.8147 9.83647 41.4764 10.5736 41.7281 11.4287C41.9985 12.3461 41.9628 13.2721 41.6284 14.036C41.2759 14.8401 40.576 15.4399 39.8006 15.601C39.0644 15.7541 38.297 15.5174 37.7834 15.2913C37.1766 15.0244 36.7295 14.6936 36.4556 14.3079C35.9732 13.6301 36.02 12.834 36.1434 12.2852Z" fill="#FFDA44"/>
<path d="M55.7331 16.4716C56.4365 16.7808 57.1319 16.9384 57.7815 16.9384C58.0393 16.9384 58.29 16.9132 58.5312 16.8634C59.708 16.6186 60.7604 15.7334 61.2775 14.5531C61.7338 13.5113 61.7891 12.2721 61.4331 11.0641C61.0731 9.84251 60.1244 8.78709 58.9572 8.31074C57.9335 7.8928 56.8494 7.95323 55.9053 8.47993C54.6847 9.16122 53.6837 10.5434 53.3543 12.0017C53.098 13.1392 53.2823 14.2238 53.873 15.0552C54.2844 15.6332 54.9098 16.1096 55.7331 16.4716ZM54.6122 12.2852C54.8599 11.1855 55.6324 10.1084 56.5332 9.60585C57.2966 9.17985 58.0076 9.3153 58.4698 9.50413C58.7785 9.63002 59.065 9.81482 59.3163 10.0424L57.2744 12.474C57.0458 12.7464 57.081 13.1528 57.354 13.3819C57.4743 13.4831 57.6213 13.533 57.7679 13.533C57.9517 13.533 58.1345 13.4544 58.2618 13.3028L60.0887 11.127C60.13 11.2257 60.1662 11.3264 60.1964 11.4287C60.4668 12.3461 60.4316 13.2721 60.0967 14.036C59.7448 14.8401 59.0438 15.4399 58.2689 15.601C57.5327 15.7541 56.7653 15.5169 56.2517 15.2913C55.6449 15.0244 55.1983 14.6936 54.9239 14.3079C54.442 13.6301 54.4883 12.834 54.6122 12.2852Z" fill="#FFDA44"/>
<path d="M64.6135 30.0581C64.5108 29.116 64.3477 28.1412 63.5939 27.481C62.8632 26.8415 61.8602 26.7932 61.1965 26.7615C46.7142 26.0671 32.0446 27.1809 17.8578 28.258C17.1745 28.3098 15.0949 28.4674 14.5627 30.1311C14.2132 31.2218 14.1986 32.4781 14.185 33.6932C14.1795 34.1821 14.1739 34.6439 14.1462 35.0699C13.9237 38.5045 13.751 41.994 13.6331 45.4413C13.5677 47.3527 13.5178 49.2863 13.4851 51.1892C13.4423 53.6596 13.4388 55.8882 13.8285 58.1446C14.0002 59.1381 14.2812 60.2715 15.0617 61.1422C16.1186 62.3209 17.7098 62.6382 19.2723 62.8048C21.6988 63.0637 24.1511 63.1301 26.5786 63.1301C27.8743 63.1301 29.1628 63.111 30.4358 63.0924C40.2669 62.9479 50.4328 62.7983 60.4186 62.1291C61.9146 62.0289 63.3502 61.8637 64.4791 60.9574C65.9227 59.7977 66.2697 57.8571 66.4046 56.498C66.6327 54.2064 66.5074 51.9299 66.3331 49.4056C65.8895 42.9759 65.3109 36.4667 64.6135 30.0581ZM65.1216 56.3706C64.9434 58.1627 64.4826 59.3012 63.6719 59.9523C62.834 60.625 61.6638 60.7534 60.3324 60.8431C50.38 61.5097 40.2311 61.6593 30.4171 61.8038C26.7967 61.8572 23.0529 61.9121 19.4087 61.5233C18.1026 61.3839 16.7878 61.1366 16.0214 60.2821C15.459 59.6542 15.2394 58.7383 15.0989 57.925C14.7278 55.78 14.7324 53.6157 14.7737 51.2113C14.8069 49.316 14.8562 47.3895 14.9212 45.4851C15.039 42.0509 15.2112 38.575 15.4328 35.1534C15.4625 34.6927 15.468 34.2143 15.4736 33.7078C15.4867 32.5884 15.4998 31.4303 15.7898 30.5244C15.9731 29.9534 16.6609 29.6417 17.9555 29.5435C32.103 28.4695 46.7323 27.3586 61.1351 28.0495C61.7766 28.0802 62.3824 28.1341 62.7444 28.4508C63.1503 28.8058 63.254 29.4796 63.332 30.1981C64.0279 36.5895 64.605 43.0817 65.0471 49.4948C65.2173 51.9596 65.3402 54.1782 65.1216 56.3706Z" fill="#FFDA44"/>
<path d="M63.6045 49.8704C62.7751 49.3679 61.7595 49.3925 60.8637 49.4142C60.6245 49.4202 60.3979 49.4253 60.1935 49.4202C59.2569 49.3961 58.3208 49.3714 57.3842 49.3462L56.857 49.3326L56.4149 49.3205C55.9496 49.3085 55.4773 49.2959 55.002 49.2838L57.3555 43.2056C57.4331 43.0056 57.4059 42.7801 57.283 42.6038C57.1939 42.4759 57.0645 42.3873 56.9164 42.349C58.0867 40.7931 58.4422 38.6007 57.6884 36.7975C57.425 36.1671 56.922 35.3282 56.0217 34.9117C55.2356 34.5482 54.4053 34.6106 53.5533 34.7128C52.9601 34.7844 51.9938 34.9007 51.2058 35.3951C50.9248 34.7743 50.5658 34.1282 50.0421 33.6035C49.0743 32.6337 47.6392 32.1962 46.2943 32.4615C45.3562 32.6468 44.5067 33.166 43.8999 33.8931C42.9941 32.6277 41.4281 31.8255 39.8681 31.9253C38.3232 32.0239 36.8876 32.9988 36.1429 34.3463C35.3936 33.5532 34.4007 32.9912 33.3276 32.7782C31.8422 32.4837 30.2444 32.8659 29.0531 33.7999C28.5203 34.2184 27.9976 34.8483 27.7741 35.5835C26.4467 35.1409 24.8586 35.6565 23.8057 36.5508C22.7074 37.4828 21.9859 38.786 21.8252 40.1259C21.6752 41.3752 22.0342 42.6617 22.7724 43.6139C22.7296 43.6487 22.6883 43.6869 22.6495 43.7318C22.3333 44.0953 22.3122 44.5858 22.5861 45.1895C23.2336 46.617 23.9361 48.037 24.6738 49.4253C24.1848 49.4444 23.6893 49.459 23.2054 49.4736C21.1606 49.5345 19.0462 49.5975 17.0315 49.9827C16.6368 50.0577 15.8155 50.2148 15.3547 50.8634C14.7404 51.729 15.1377 52.8947 15.8583 53.4788C16.4933 53.9939 17.2803 54.1394 18.0366 54.2205C19.296 54.3554 20.5765 54.361 21.7205 54.361H21.8852C35.3146 54.358 48.9217 53.9773 62.3295 53.23C62.8325 53.2023 63.8784 53.1439 64.3754 52.305C64.8925 51.4319 64.3925 50.3402 63.6045 49.8704ZM23.1052 40.279C23.2271 39.2583 23.787 38.2573 24.64 37.5327C25.8289 36.5231 27.2363 36.5281 27.909 37.1173C28.115 37.297 28.4126 37.3277 28.6507 37.1928C28.8894 37.0578 29.0163 36.7864 28.9675 36.517C28.8491 35.8629 29.3683 35.1907 29.8486 34.8141C30.7485 34.1086 31.955 33.8201 33.0768 34.0426C34.1982 34.2652 35.2033 34.9923 35.7657 35.9878C35.8977 36.2215 36.161 36.3488 36.4254 36.3076C36.6908 36.2663 36.9027 36.0654 36.9576 35.803C37.2492 34.4158 38.5357 33.3019 39.9502 33.2113C41.3631 33.1202 42.7821 34.0623 43.2479 35.4012C43.336 35.6535 43.5701 35.8257 43.8375 35.8337C44.1054 35.8433 44.3491 35.6837 44.4518 35.4369C44.8093 34.5779 45.6306 33.9062 46.5435 33.7259C47.458 33.5456 48.4721 33.8548 49.1297 34.5139C49.7143 35.1001 50.0592 35.9616 50.3639 36.722C50.4515 36.941 50.6514 37.0946 50.885 37.1228C51.1197 37.1505 51.3498 37.0488 51.4868 36.8569C51.9168 36.2542 52.8584 36.0946 53.7074 35.9923C54.3937 35.9098 55.0005 35.8594 55.4804 36.0815C55.8892 36.2708 56.2513 36.7013 56.499 37.2945C57.2241 39.0292 56.6118 41.2337 55.1062 42.3566L35.2204 42.701C31.5919 42.7634 27.8466 42.8289 24.1586 43.2554C24.1309 43.2091 24.0987 43.1643 24.0579 43.125C23.3429 42.4311 22.9778 41.3404 23.1052 40.279ZM23.7367 44.6044C27.5429 44.1235 31.457 44.0555 35.2431 43.9901L55.8077 43.6336L53.6334 49.2485C52.0548 49.2083 50.445 49.17 48.8533 49.1378C42.8672 49.0164 38.2492 49.0038 33.881 49.098C31.2978 49.1534 28.6855 49.2435 26.1003 49.3618C25.2684 47.8275 24.4809 46.2454 23.7598 44.6568C23.7513 44.6376 23.7437 44.6205 23.7367 44.6044ZM63.2666 51.6479C63.1201 51.8946 62.4937 51.9294 62.258 51.9425C48.8739 52.6887 35.2904 53.0684 21.8852 53.0714C20.731 53.0714 19.4259 53.0724 18.1741 52.9385C17.6146 52.8786 17.0451 52.7809 16.67 52.4767C16.388 52.2481 16.2571 51.8186 16.4056 51.6091C16.5471 51.4102 16.9238 51.3151 17.2732 51.2481C19.1872 50.8825 21.2497 50.8211 23.2437 50.7617C23.931 50.741 24.6415 50.7199 25.3319 50.6866C28.1749 50.5487 31.0602 50.448 33.9087 50.3865C35.8211 50.3457 37.7819 50.3246 39.8857 50.3246C42.5681 50.3246 45.4831 50.3583 48.8271 50.4263C51.3644 50.4777 53.9501 50.5446 56.3807 50.6091L57.35 50.6348C58.2866 50.6595 59.2232 50.6846 60.1603 50.7088C60.3974 50.7148 60.6502 50.7088 60.8949 50.7028C61.6497 50.6846 62.4297 50.6655 62.9408 50.9747C63.1956 51.1272 63.3663 51.4792 63.2666 51.6479Z" fill="#FFDA44"/>
</g>
<defs>
<filter id="filter0_d" x="-3" y="0" width="86" height="86" filterUnits="userSpaceOnUse" color-interpolation-filters="sRGB">
<feFlood flood-opacity="0" result="BackgroundImageFix"/>
<feColorMatrix in="SourceAlpha" type="matrix" values="0 0 0 0 0 0 0 0 0 0 0 0 0 0 0 0 0 0 127 0"/>
<feOffset dy="4"/>
<feGaussianBlur stdDeviation="5"/>
<feColorMatrix type="matrix" values="0 0 0 0 1 0 0 0 0 0.72 0 0 0 0 0 0 0 0 1 0"/>
<feBlend mode="normal" in2="BackgroundImageFix" result="effect1_dropShadow"/>
<feBlend mode="normal" in="SourceGraphic" in2="effect1_dropShadow" result="shape"/>
</filter>
</defs>
</svg>
