<?xml version="1.0" encoding="iso-8859-1"?>
<!-- Generator: Adobe Illustrator 19.1.0, SVG Export Plug-In . SVG Version: 6.00 Build 0)  -->
<svg xmlns="http://www.w3.org/2000/svg" xmlns:xlink="http://www.w3.org/1999/xlink" version="1.1" id="Capa_1" x="0px" y="0px" viewBox="0 0 517.147 517.147" style="enable-background:new 0 0 517.147 517.147;" xml:space="preserve" width="512px" height="512px">
<g>
	<g>
		<path d="M258.573,0C116.855,0,0,116.855,0,258.573s116.855,258.573,258.573,258.573s258.573-116.855,258.573-258.573    S400.292,0,258.573,0z M258.573,492.284c-129.287,0-233.711-104.424-233.711-233.711S129.287,24.863,258.573,24.863    s233.711,104.424,233.711,233.711S387.86,492.284,258.573,492.284z" fill="#FFDA44"/>
		<path d="M258.573,166.581c-49.726,0-91.992,42.267-91.992,91.992s42.267,91.992,91.992,91.992s91.992-42.267,91.992-91.992    S308.299,166.581,258.573,166.581z M258.573,325.703c-37.294,0-67.13-29.835-67.13-67.13s29.835-67.13,67.13-67.13    s67.13,29.835,67.13,67.13S295.868,325.703,258.573,325.703z" fill="#FFDA44"/>
		<path d="M109.396,231.224c0-67.13,54.698-121.828,121.828-121.828c7.459,0,12.431-4.973,12.431-12.431    s-4.973-12.431-12.431-12.431c-82.047,0-146.691,67.13-146.691,146.691c0,7.459,4.973,12.431,12.431,12.431    C104.424,243.656,109.396,238.683,109.396,231.224z" fill="#FFDA44"/>
		<path d="M358.025,104.424c-7.459,0-12.431,4.973-12.431,12.431v24.863c0,7.459,4.973,12.431,12.431,12.431    s12.431-4.973,12.431-12.431v-24.863C370.456,109.396,365.484,104.424,358.025,104.424z" fill="#FFDA44"/>
		<path d="M114.369,295.868c-2.486-7.459-9.945-9.945-14.918-7.459c-7.459,2.486-9.945,9.945-7.459,14.918l4.973,19.89    c2.486,4.973,7.459,7.459,12.431,7.459c2.486,0,2.486,0,4.973,0c7.459-2.486,9.945-9.945,7.459-14.918L114.369,295.868z" fill="#FFDA44"/>
		<path d="M171.553,365.484h-24.863c-7.459,0-12.431,4.973-12.431,12.431s4.973,12.431,12.431,12.431h24.863    c7.459,0,12.431-4.973,12.431-12.431S179.012,365.484,171.553,365.484z" fill="#FFDA44"/>
		<path d="M320.73,385.374l-19.89,19.89c-4.973,4.973-4.973,12.431,0,17.404c2.486,2.486,4.973,2.486,9.945,2.486    s7.459,0,9.945-2.486l19.89-19.89c4.973-4.973,4.973-12.431,0-17.404C335.648,380.401,325.703,380.401,320.73,385.374z" fill="#FFDA44"/>
		<path d="M407.75,303.326c-7.459,0-12.431,4.973-12.431,12.431v24.863c0,7.459,4.973,12.431,12.431,12.431    s12.431-4.973,12.431-12.431v-24.863C420.182,308.299,415.209,303.326,407.75,303.326z" fill="#FFDA44"/>
		<path d="M407.75,208.848c-4.973,4.973-4.973,12.431,0,17.404c2.486,2.486,4.973,2.486,9.945,2.486s7.459,0,9.945-2.486    l14.918-14.918c4.973-4.973,4.973-12.431,0-17.404c-4.973-4.973-12.431-4.973-17.404,0L407.75,208.848z" fill="#FFDA44"/>
		<path d="M251.115,407.75c-4.973-4.973-12.431-4.973-17.404,0c-4.973,4.973-4.973,12.431,0,17.404l9.945,12.431    c2.486,2.486,4.973,2.486,9.945,2.486c4.973,0,7.459,0,9.945-2.486c4.973-4.973,4.973-12.431,0-17.404L251.115,407.75z" fill="#FFDA44"/>
		<path d="M305.813,101.938c2.486,2.486,4.973,2.486,9.945,2.486s7.459,0,9.945-2.486c4.973-4.973,4.973-12.431,0-17.404    l-22.377-22.377c-4.973-4.973-12.431-4.973-17.404,0s-4.973,12.431,0,17.404L305.813,101.938z" fill="#FFDA44"/>
		<path d="M405.264,268.519c2.486-2.486,4.973-4.973,4.973-7.459s0-7.459-4.973-9.945c-4.973-4.973-12.431-4.973-17.404,0    c-2.486,2.486-2.486,4.973-2.486,9.945c0,2.486,0,7.459,2.486,7.459c2.486,2.486,4.973,4.973,9.945,4.973    C397.805,273.491,402.778,271.005,405.264,268.519z" fill="#FFDA44"/>
	</g>
</g>
<g>
</g>
<g>
</g>
<g>
</g>
<g>
</g>
<g>
</g>
<g>
</g>
<g>
</g>
<g>
</g>
<g>
</g>
<g>
</g>
<g>
</g>
<g>
</g>
<g>
</g>
<g>
</g>
<g>
</g>
</svg>
